<svg xmlns="http://www.w3.org/2000/svg" height="800" width="600" version="1.1" xmlns:xlink="http://www.w3.org/1999/xlink">
<defs>
<path id="ico1"
d="M 100,100 V 100 M 0,0 V 0 M 15.463,60.41 L 7.408,63.707 C 5.645,64.429 4.801,66.444 5.523,68.207 C 6.07,69.542 7.358,70.351 8.717,70.351 C 9.153,70.351 9.595,70.268 10.023,70.093 L 18.078,66.796 C 19.842,66.074 20.686,64.059 19.964,62.296 C 19.243,60.532 17.228,59.689 15.463,60.41 Z M 33.054,18.492 C 33.608,19.814 34.889,20.609 36.238,20.609 C 36.683,20.609 37.135,20.523 37.571,20.34 C 39.328,19.604 40.156,17.582 39.419,15.824 L 36.082,7.863 C 35.346,6.106 33.324,5.278 31.566,6.015 C 29.809,6.751 28.982,8.773 29.718,10.531 Z M 18.078,33.204 L 10.023,29.906 C 8.258,29.184 6.244,30.028 5.523,31.792 C 4.801,33.555 5.645,35.57 7.408,36.292 L 15.463,39.59 C 15.891,39.765 16.334,39.848 16.769,39.848 C 18.128,39.848 19.417,39.04 19.963,37.704 C 20.686,35.941 19.842,33.925 18.078,33.204 Z M 62.429,20.34 C 62.865,20.523 63.317,20.609 63.762,20.609 C 65.111,20.609 66.391,19.814 66.946,18.492 L 70.282,10.531 C 71.018,8.773 70.191,6.752 68.434,6.015 C 66.678,5.278 64.655,6.106 63.918,7.863 L 60.581,15.824 C 59.844,17.582 60.672,19.604 62.429,20.34 Z M 92.591,63.708 L 84.535,60.411 C 82.774,59.689 80.757,60.533 80.035,62.297 C 79.313,64.06 80.158,66.075 81.921,66.797 L 89.977,70.094 C 90.404,70.269 90.847,70.352 91.283,70.352 C 92.642,70.352 93.93,69.543 94.477,68.207 C 95.199,66.444 94.354,64.43 92.591,63.708 Z M 37.57,79.659 C 35.815,78.922 33.791,79.75 33.054,81.508 L 29.718,89.47 C 28.982,91.227 29.809,93.249 31.567,93.985 C 32.003,94.168 32.454,94.255 32.899,94.255 C 34.248,94.255 35.529,93.459 36.083,92.137 L 39.42,84.175 C 40.156,82.417 39.328,80.395 37.57,79.659 Z M 49.928,22.621 C 34.676,22.621 22.266,34.904 22.266,50 C 22.266,65.096 34.675,77.378 49.928,77.378 C 65.18,77.378 77.588,65.096 77.588,50 C 77.588,34.903 65.18,22.621 49.928,22.621 Z M 49.928,70.478 C 38.481,70.478 29.167,61.292 29.167,50 C 29.167,38.708 38.481,29.521 49.928,29.521 C 61.375,29.521 70.687,38.708 70.687,50 C 70.687,61.292 61.375,70.478 49.928,70.478 Z M 66.946,81.507 C 66.209,79.75 64.188,78.922 62.429,79.659 C 60.672,80.396 59.844,82.417 60.581,84.175 L 63.918,92.136 C 64.472,93.458 65.752,94.253 67.102,94.253 C 67.547,94.253 67.998,94.167 68.435,93.984 C 70.192,93.248 71.019,91.226 70.283,89.468 Z M 83.23,39.848 C 83.665,39.848 84.108,39.765 84.536,39.59 L 92.592,36.292 C 94.355,35.57 95.199,33.555 94.477,31.792 C 93.755,30.028 91.741,29.185 89.977,29.906 L 81.921,33.204 C 80.157,33.926 79.314,35.941 80.035,37.704 C 80.582,39.04 81.87,39.848 83.23,39.848 Z"
/>
<path id="ico2"
d="M 100,100 L 100,100 M 0,0 L 0,0 M 85.282007,33.540082 H 84.456125 V 33.128065 C 84.456125,31.334033 83.00113,29.879038 81.207098,29.879038 C 79.41399,29.879038 77.958072,31.334033 77.958072,33.128065 V 33.541006 H 77.132189 C 75.338157,33.541006 73.883162,34.995077 73.883162,36.790033 C 73.883162,38.583141 75.338157,40.039059 77.132189,40.039059 H 77.958072 V 40.451077 C 77.958072,42.245108 79.413066,43.700103 81.207098,43.700103 C 83.00113,43.700103 84.456125,42.245108 84.456125,40.451077 V 40.038135 H 85.282007 C 87.076039,40.038135 88.531034,38.583141 88.531034,36.789109 C 88.531034,34.995077 87.076963,33.540082 85.282007,33.540082 Z M 59.028358,18.66865 H 59.855165 V 19.081591 C 59.855165,20.874699 61.31016,22.330618 63.104191,22.330618 C 64.898223,22.330618 66.353218,20.875623 66.353218,19.081591 V 18.66865 H 67.180024 C 68.974056,18.66865 70.429051,17.214579 70.429051,15.419623 C 70.429051,13.624668 68.97498,12.170597 67.180024,12.170597 H 66.353218 V 11.758579 C 66.353218,9.964548 64.898223,8.509553 63.104191,8.509553 C 61.31016,8.509553 59.855165,9.964548 59.855165,11.758579 V 12.171521 H 59.028358 C 57.234326,12.171521 55.780255,13.625592 55.780255,15.420547 C 55.780255,17.215503 57.234326,18.66865 59.028358,18.66865 Z M 82.900435,68.502453 C 80.990004,68.818395 79.068487,68.978213 77.192236,68.978213 C 58.309637,68.978213 42.947663,53.812086 42.947663,35.1706 C 42.947663,28.483167 44.925532,22.013752 48.666948,16.464448 C 49.392135,15.388214 49.40784,13.984028 48.706671,12.892089 C 48.005502,11.799227 46.716793,11.228314 45.44194,11.442637 C 25.757477,14.70275 11.468966,31.417176 11.468966,51.184781 C 11.468966,73.409712 29.745548,91.490447 52.210668,91.490447 C 65.858981,91.490447 78.536374,84.773452 86.123595,73.52334 C 86.848783,72.447105 86.864487,71.04292 86.163318,69.951905 C 85.463997,68.86089 84.178059,68.290901 82.900435,68.502453 Z M 52.210668,84.993318 C 33.328993,84.993318 17.967019,69.827191 17.967019,51.184781 C 17.967019,37.043156 26.702531,24.762999 39.536047,19.760589 C 37.503673,24.614267 36.44961,29.832848 36.44961,35.169677 C 36.44961,57.013999 54.108166,74.856392 76.045793,75.459638 C 69.720491,81.52073 61.217779,84.993318 52.210668,84.993318 Z"
/>
<path id="ico3"
d="M 100,100 L 100,100 M 0,0 L 0,0 M 20.964264,30.702 C 21.282264,31.463 22.021264,31.921 22.796264,31.921 C 23.053264,31.921 23.314264,31.871 23.565264,31.766 C 24.577264,31.342 25.053264,30.177 24.630264,29.165 L 22.708264,24.58 C 22.284264,23.568 21.120264,23.092 20.107264,23.516 C 19.094264,23.94 18.618264,25.105 19.042264,26.117 Z M 78.902264,45.187 C 76.746264,45.187 74.616264,45.618 72.644264,46.444 C 69.001264,40.115 62.166264,36.126 54.710264,36.126 C 45.470264,36.126 37.452264,42.178 34.908264,50.786 C 34.173264,50.662 33.427264,50.6 32.676264,50.6 C 25.333264,50.6 19.359264,56.515 19.359264,63.785 C 19.359264,70.901 25.204264,76.812 32.431264,76.963 C 32.431264,76.963 78.592264,76.969 78.902264,76.969 C 87.754264,76.969 94.957264,69.84 94.957264,61.078 C 94.957264,52.316 87.754264,45.187 78.902264,45.187 Z M 78.902264,72.944 C 78.603264,72.944 35.502264,72.854 32.623264,72.854 C 32.523264,72.854 32.472264,72.854 32.474264,72.854 C 27.415264,72.854 23.299264,68.687 23.299264,63.7 C 23.299264,58.603 27.507264,54.54 32.677264,54.54 C 33.715264,54.54 34.741264,54.709 35.725264,55.042 C 36.266264,55.226 36.860264,55.165 37.353264,54.876 C 37.846264,54.587 38.189264,54.099 38.294264,53.537 C 39.754264,45.73 46.657264,40.063 54.711264,40.063 C 61.310264,40.063 67.303264,43.914 69.981264,49.874 C 70.209264,50.383 70.643264,50.769 71.174264,50.94 C 71.703264,51.111 72.285264,51.044 72.767264,50.763 C 74.621264,49.685 76.744264,49.105 78.903264,49.105 C 85.583264,49.105 91.017264,54.444 91.017264,61.034 C 91.017264,67.625 85.582264,72.944 78.902264,72.944 Z M 19.639264,53.377 C 19.033264,51.941 18.725264,50.416 18.726264,48.846 C 18.726264,42.344 24.089264,37.053 30.682264,37.053 C 33.080264,37.053 35.395264,37.751 37.374264,39.073 C 38.284264,39.682 39.520264,39.435 40.130264,38.524 C 40.739264,37.611 40.492264,36.377 39.580264,35.768 C 36.945264,34.009 33.869264,33.08 30.682264,33.08 C 21.898264,33.08 14.752264,40.153 14.752264,48.847 C 14.751264,50.951 15.165264,52.996 15.978264,54.923 C 16.298264,55.682 17.034264,56.138 17.809264,56.138 C 18.068264,56.138 18.330264,56.088 18.580264,55.981 C 19.592264,55.553 20.065264,54.388 19.639264,53.377 Z M 12.340264,39.173 L 7.7012641,37.275 C 6.6852641,36.858 5.5242641,37.345 5.1092641,38.361 C 4.6942641,39.377 5.1802641,40.536 6.1952641,40.952 L 10.834264,42.851 C 11.080264,42.952 11.335264,43 11.587264,43 C 12.370264,43 13.110264,42.534 13.426264,41.766 C 13.843264,40.75 13.355264,39.589 12.340264,39.173 Z M 37.880264,31.766 C 38.132264,31.871 38.392264,31.921 38.648264,31.921 C 39.424264,31.921 40.163264,31.463 40.482264,30.702 L 42.404264,26.117 C 42.828264,25.106 42.352264,23.941 41.340264,23.517 C 40.326264,23.093 39.163264,23.569 38.739264,24.58 L 36.816264,29.165 C 36.392264,30.177 36.869264,31.341 37.880264,31.766 Z M 10.834264,54.841 L 6.1952641,56.74 C 5.1802641,57.156 4.6942641,58.316 5.1092641,59.331 C 5.4232641,60.101 6.1662641,60.566 6.9492641,60.566 C 7.2002641,60.566 7.4552641,60.518 7.7012641,60.417 L 12.340264,58.518 C 13.356264,58.102 13.843264,56.942 13.426264,55.927 C 13.011264,54.911 11.850264,54.425 10.834264,54.841 Z"
/>
<path id="ico3b"
d="M 100,100 L 100,100 M 0,0 L 0,0 M 94.649,48.558 C 92.469,51.79 89.386,54.23 85.735,55.614 C 85.511,55.7 85.279,55.74 85.05,55.74 C 84.27,55.74 83.534,55.264 83.24,54.491 C 82.863,53.492 83.365,52.376 84.364,51.998 C 85.904,51.415 87.316,50.595 88.561,49.571 C 78.995,48.727 71.47,40.75 71.47,31.069 C 71.47,29.002 71.812,26.974 72.478,25.051 C 68.399,27.03 65.341,30.807 64.416,35.324 C 64.2,36.37 63.18,37.044 62.133,36.829 C 61.088,36.615 60.412,35.593 60.627,34.547 C 62.16,27.071 68.301,21.202 75.907,19.943 C 76.67,19.818 77.431,20.156 77.849,20.806 C 78.265,21.456 78.256,22.292 77.825,22.931 C 76.198,25.345 75.338,28.158 75.338,31.067 C 75.338,39.178 82.024,45.776 90.242,45.776 C 91.061,45.776 91.899,45.707 92.728,45.569 C 93.491,45.444 94.254,45.782 94.671,46.432 C 95.091,47.083 95.081,47.919 94.649,48.558 Z M 8.211,36.193 H 8.45 V 36.626 C 8.45,37.693 9.346,38.56 10.416,38.56 C 11.483,38.56 12.38,37.694 12.38,36.626 V 36.193 H 12.621 C 13.689,36.193 14.555,35.296 14.555,34.229 C 14.555,33.161 13.69,32.264 12.621,32.264 H 12.38 V 31.831 C 12.38,30.764 11.484,29.898 10.416,29.898 C 9.347,29.898 8.45,30.764 8.45,31.831 V 32.264 H 8.211 C 7.145,32.264 6.277,33.161 6.277,34.229 C 6.277,35.296 7.145,36.193 8.211,36.193 Z M 21.307,25.518 H 21.548 V 25.951 C 21.548,27.018 22.443,27.884 23.512,27.884 C 24.578,27.884 25.476,27.018 25.476,25.951 V 25.518 H 25.718 C 26.784,25.518 27.651,24.622 27.651,23.553 C 27.651,22.486 26.785,21.589 25.718,21.589 H 25.476 V 21.157 C 25.476,20.089 24.579,19.223 23.512,19.223 C 22.443,19.223 21.548,20.088 21.548,21.157 V 21.589 H 21.307 C 20.241,21.589 19.374,22.486 19.374,23.553 C 19.374,24.621 20.24,25.518 21.307,25.518 Z M 78.742,56.052 C 78.742,64.603 71.713,71.56 63.074,71.56 C 62.772,71.56 17.722,71.554 17.722,71.554 C 10.67,71.406 4.965,65.637 4.965,58.693 C 4.965,51.598 10.796,45.826 17.961,45.826 C 18.694,45.826 19.422,45.887 20.14,46.008 C 22.623,37.606 30.447,31.7 39.465,31.7 C 46.742,31.7 53.412,35.594 56.968,41.77 C 58.893,40.964 60.97,40.543 63.074,40.543 C 71.713,40.543 78.742,47.5 78.742,56.052 Z M 74.896,56.01 C 74.896,49.579 69.592,44.368 63.074,44.368 C 60.967,44.368 58.896,44.934 57.086,45.986 C 56.615,46.259 56.049,46.325 55.532,46.158 C 55.013,45.991 54.59,45.616 54.367,45.118 C 51.755,39.301 45.905,35.543 39.465,35.543 C 31.606,35.543 24.868,41.074 23.444,48.692 C 23.341,49.24 23.006,49.717 22.525,49.998 C 22.044,50.28 21.464,50.339 20.936,50.16 C 19.976,49.834 18.975,49.67 17.96,49.67 C 12.915,49.67 8.81,53.634 8.81,58.608 C 8.81,63.476 12.827,67.542 17.763,67.542 C 17.761,67.542 17.812,67.542 17.909,67.542 C 20.718,67.542 62.781,67.63 63.073,67.63 C 69.593,67.632 74.896,62.441 74.896,56.01 Z"
/>
<path id="ico4"
d="M 100,100 L 100,100 M 0,0 L 0,0 M 11.035,62.931 C 10.556,62.931 10.076,62.764 9.687,62.424 C 6.733,59.83 5.039,56.103 5.039,52.196 C 5.039,44.658 11.232,38.527 18.846,38.527 C 19.625,38.527 20.399,38.592 21.16,38.72 C 23.797,29.795 32.11,23.52 41.689,23.52 C 45.907,23.52 49.987,24.734 53.489,27.031 C 54.432,27.649 54.695,28.916 54.076,29.859 C 53.459,30.803 52.191,31.065 51.25,30.447 C 48.414,28.588 45.108,27.606 41.689,27.606 C 33.339,27.606 26.181,33.481 24.669,41.574 C 24.56,42.156 24.204,42.662 23.693,42.961 C 23.181,43.26 22.564,43.323 22.005,43.132 C 20.986,42.787 19.923,42.612 18.845,42.612 C 13.485,42.612 9.124,46.911 9.124,52.196 C 9.124,54.926 10.312,57.535 12.382,59.353 C 13.231,60.097 13.315,61.388 12.57,62.235 C 12.168,62.696 11.602,62.931 11.035,62.931 Z M 94.851,59.672 C 94.851,50.588 87.383,43.196 78.205,43.196 C 75.97,43.196 73.764,43.642 71.719,44.499 C 67.94,37.938 60.855,33.802 53.125,33.802 C 43.545,33.802 35.232,40.076 32.595,49.002 C 31.832,48.873 31.059,48.809 30.281,48.809 C 22.669,48.809 16.474,54.941 16.474,62.478 C 16.474,69.855 22.536,75.984 30.027,76.141 C 30.027,76.141 77.886,76.147 78.206,76.147 C 87.383,76.147 94.851,68.756 94.851,59.672 Z M 30.07,73 C 24.825,73 20.557,68.12 20.557,62.949 C 20.557,57.664 24.918,53.035 30.28,53.035 C 31.358,53.035 32.421,53.14 33.441,53.486 C 34.002,53.676 34.618,53.578 35.129,53.278 C 35.64,52.979 35.995,52.456 36.105,51.875 C 37.619,43.781 44.776,37.899 53.126,37.899 C 59.967,37.899 66.182,41.891 68.958,48.07 C 69.193,48.597 69.645,49.003 70.195,49.179 C 70.745,49.357 71.343,49.303 71.845,49.012 C 73.769,47.895 75.968,47.328 78.205,47.328 C 85.131,47.328 90.766,52.932 90.766,59.764 C 90.766,66.596 85.131,72.533 78.205,72.533 C 77.897,72.534 33.334,73 30.239,73 C 30.126,73 30.068,73 30.07,73 Z"
/>
<path id="ico6" style="opacity:0.6"
     d="M 29.470392,71.059064 V 81.36869 l -4.183615,1.94239 V 79.426295 L 16.919546,83.31108 V 79.426295 L 8.5523152,83.693956 V 96.160758 H 29.470392 33.654007 V 79.426295 71.059064 Z M 11.839441,86.897039 h 4.183616 v 2.988293 h -4.183616 z m 7.171913,0 h 4.183615 v 2.988293 h -4.183615 z m 7.171912,0 h 4.183616 v 2.988293 H 26.183266 Z M 100,100 v 0 M 0,0 v 0 m 31.750468,70.36494 c -0.749996,0 -1.469206,-0.152634 -2.125139,-0.428915 h 4.246391 c -0.659313,0.277646 -1.378244,0.428915 -2.121252,0.428915 z m -3.077996,-0.951129 c -0.228902,-0.156107 -0.444987,-0.3292 -0.647045,-0.517895 h 7.449219 c -0.202072,0.188586 -0.416969,0.362436 -0.644885,0.517895 z m -1.139887,-1.040109 c -0.13447,-0.164092 -0.257277,-0.337633 -0.371899,-0.517463 h 9.179565 c -0.115337,0.180814 -0.241002,0.353194 -0.375786,0.517463 z m 10.580344,-0.391769 c -0.340498,0 -0.677384,-0.04588 -1.005554,-0.125694 h 2.014563 c -0.323964,0.07906 -0.660725,0.125694 -1.009009,0.125694 z M 26.863512,67.334025 c -0.08167,-0.167158 -0.152101,-0.340597 -0.216402,-0.517463 h 14.383134 c -0.204536,0.193997 -0.429002,0.366945 -0.669505,0.517463 z m -2.244355,-1.039677 c -0.317702,-0.130357 -0.61198,-0.305167 -0.874676,-0.517463 h 18.088738 c -0.09894,0.181881 -0.214546,0.352931 -0.338641,0.517463 z M 23.22313,65.254671 c -0.130971,-0.161726 -0.249004,-0.334425 -0.349438,-0.517895 h 19.351727 c -0.04118,0.177482 -0.09482,0.349769 -0.15809,0.517895 z m -0.577934,-1.040109 c -0.05817,-0.167303 -0.103759,-0.339781 -0.135629,-0.517463 H 42.33038 c 8.87e-4,0.03522 0.0052,0.06953 0.0052,0.104961 0,0.139213 -0.0072,0.276741 -0.02073,0.412502 z m -0.188325,-1.039677 c -6.99e-4,-0.02844 -0.0043,-0.05606 -0.0043,-0.08466 0,-0.146639 0.01279,-0.290631 0.0311,-0.432803 h 19.686912 c 0.04852,0.168331 0.08535,0.341249 0.112304,0.517463 z M 22.5925,62.135208 c 0.05265,-0.178996 0.120782,-0.351231 0.200851,-0.517463 h 18.91331 c 0.103174,0.165724 0.197058,0.337542 0.27644,0.517463 z m 0.510983,-1.039677 c 0.134702,-0.187196 0.287456,-0.360303 0.456128,-0.517895 h 17.23825 c 0.191316,0.15636 0.366486,0.331049 0.527397,0.517895 z m 1.173579,-1.040109 c 0.48117,-0.263278 1.030042,-0.419282 1.613723,-0.431507 12.141285,-0.0018 12.141413,-0.0017 12.222576,-0.0017 0.668094,0 1.297866,0.158711 1.859929,0.433234 z M 46.597656,10.929688 c -3.391304,0 -6.643401,0.690175 -9.609375,1.939453 H 56.189453 C 53.208195,11.613692 49.95736,10.929688 46.597656,10.929688 Z m -13.917968,4.300781 c -1.03504,0.705875 -2.012125,1.488563 -2.925782,2.341797 H 63.4375 c -0.913723,-0.852741 -1.885432,-1.638851 -2.916016,-2.341797 z m -5.154297,4.703125 c -0.608041,0.741984 -1.163344,1.526696 -1.681641,2.339844 h 41.507812 c -0.521527,-0.817598 -1.089755,-1.59706 -1.699218,-2.339844 z m 47.841797,1.771484 c -1.539652,0 -3.062968,0.207441 -4.546876,0.56836 h 9.109376 c -1.46489,-0.357509 -2.987644,-0.56836 -4.5625,-0.56836 z M 24.5,24.634766 c -0.369275,0.755845 -0.687761,1.540095 -0.978516,2.339843 h 65.03711 c -0.924866,-0.877207 -1.939848,-1.65924 -3.027344,-2.339843 z m -10.148438,4.701172 c -1.436572,0.589442 -2.767229,1.379889 -3.955078,2.339843 H 92.189453 C 91.742066,30.853357 91.21933,30.079913 90.658203,29.335938 Z M 8.0390625,34.037109 C 7.4468392,34.768393 6.9131238,35.549298 6.4589844,36.378906 H 93.962891 c -0.186199,-0.802529 -0.42877,-1.581572 -0.714844,-2.341797 z M 5.4257812,38.740234 C 5.162748,39.496739 4.9566047,40.276642 4.8125,41.080078 h 89.625 c 0.004,-0.159269 0.02345,-0.314397 0.02344,-0.474609 0,-0.629487 -0.03269,-1.251357 -0.09375,-1.865235 z m -0.8515624,4.701172 c -0.00316,0.12858 -0.019531,0.253494 -0.019531,0.382813 0,0.663067 0.057828,1.314162 0.140625,1.957031 H 93.714844 c 0.219393,-0.76115 0.385948,-1.543048 0.507812,-2.339844 z M 5.1875,48.142578 c 0.2380926,0.809379 0.5461495,1.588182 0.9082031,2.339844 H 91.617188 c 0.466529,-0.749364 0.891052,-1.526286 1.25,-2.339844 z m 2.3105469,4.701172 c 0.6090898,0.846454 1.2998072,1.629205 2.0625,2.341797 H 87.507812 c 0.865084,-0.707022 1.657165,-1.496923 2.384766,-2.341797 z m 5.3066411,4.703125 c 2.175739,1.190481 4.657606,1.895893 7.296874,1.951172 54.9,0.008 54.900579,0.0078 55.267579,0.0078 3.020965,0 5.868643,-0.717657 8.410156,-1.958984 z" 
/>
<path id="ico6b"

/>
<path id="ico8"
d="M 100,100 L 100,100 M 0,0 L 0,0 M 18.133168,65.03125 L 17.30895,66.226562 L 16.023794,70.642578 L 16.27184,72.488281 L 17.80309,73.544922 L 19.61559,73.123047 L 20.441762,71.927734 L 21.724965,67.511719 L 21.478872,65.666016 L 19.945668,64.609375 Z M 14.279653,78.28125 L 13.455434,79.476562 L 12.170278,83.894531 L 12.418325,85.738281 L 13.949575,86.796875 L 15.762075,86.375 L 16.586294,85.179688 L 17.87145,80.761719 L 17.623403,78.917969 L 16.092153,77.859375 Z M 36.000356,65.03125 L 35.176137,66.226562 L 33.890981,70.642578 L 34.139028,72.488281 L 35.670278,73.544922 L 37.482778,73.123047 L 38.30895,71.927734 L 39.592153,67.511719 L 39.346059,65.666016 L 37.812856,64.609375 Z M 32.14684,78.28125 L 31.322622,79.476562 L 30.037465,83.894531 L 30.285512,85.738281 L 31.816762,86.796875 L 33.629262,86.375 L 34.453481,85.179688 L 35.738637,80.761719 L 35.49059,78.917969 L 33.95934,77.859375 Z M 53.867544,65.03125 L 53.043325,66.226562 L 51.758168,70.642578 L 52.006215,72.488281 L 53.537465,73.544922 L 55.349965,73.123047 L 56.176137,71.927734 L 57.45934,67.511719 L 57.213247,65.666016 L 55.680044,64.609375 Z M 50.014028,78.28125 L 49.189809,79.476562 L 47.904653,83.894531 L 48.1527,85.738281 L 49.68395,86.796875 L 51.49645,86.375 L 52.320668,85.179688 L 53.605825,80.761719 L 53.357778,78.917969 L 51.826528,77.859375 Z M 71.734731,65.03125 L 70.910512,66.226562 L 69.625356,70.642578 L 69.873403,72.488281 L 71.404653,73.544922 L 73.217153,73.123047 L 74.043325,71.927734 L 75.326528,67.511719 L 75.080434,65.666016 L 73.549184,64.609375 Z M 67.881215,78.28125 L 67.056997,79.476562 L 65.77184,83.894531 L 66.019887,85.738281 L 67.551137,86.796875 L 69.363637,86.375 L 70.187856,85.179688 L 71.473012,80.761719 L 71.224965,78.917969 L 69.693715,77.859375 Z M 74.854,59.506 C 74.487,59.506 74.487,59.506 19.587,59.498 C 10.993,59.318 4.041,52.288 4.041,43.825 C 4.041,35.179 11.146,28.144 19.879,28.144 C 20.771,28.144 21.657,28.218 22.533,28.366 C 25.559,18.13 35.095,10.93 46.083,10.93 C 54.951,10.93 63.079,15.676 67.414,23.201 C 69.759,22.218 72.291,21.706 74.853,21.706 C 85.382,21.706 93.947,30.185 93.947,40.605 C 93.948,51.028 85.384,59.506 74.854,59.506 Z"
/>
<path id="ico9"
d="M 100,100 L 100,100 M 0,0 L 0,0 M 61.485,52.705 H 7.837 C 6.295,52.705 5.044,54.029 5.044,55.572 C 5.044,57.115 6.294,58.439 7.837,58.439 H 61.484 C 68.096,58.439 73.475,63.44 73.475,69.828 C 73.475,76.321 68.268,81.213 61.622,81.213 C 60.08,81.213 58.829,82.464 58.829,84.007 C 58.829,85.549 60.08,86.8 61.622,86.8 C 71.238,86.8 79.061,79.22 79.061,69.754 C 79.062,60.286 71.177,52.705 61.485,52.705 Z M 77.509,13.2 C 75.967,13.2 74.716,14.451 74.716,15.994 C 74.716,17.536 75.967,18.787 77.509,18.787 C 84.16,18.787 89.37,23.895 89.37,30.417 C 89.37,36.896 83.967,42.166 77.327,42.166 L 7.837,42.164 C 6.295,42.164 5.044,43.415 5.044,44.958 C 5.044,46.5 6.295,47.751 7.837,47.751 L 77.327,47.753 C 87.048,47.753 94.956,39.976 94.956,30.417 C 94.956,20.924 87.13,13.2 77.509,13.2 Z M 7.837,37.48 H 48.13 C 54.572,37.48 59.812,32.287 59.812,25.902 C 59.812,19.516 54.572,14.32 48.13,14.32 C 46.587,14.32 45.337,15.571 45.337,17.113 C 45.337,18.656 46.587,19.907 48.13,19.907 C 51.491,19.907 54.226,22.596 54.226,25.902 C 54.226,29.206 51.492,31.893 48.13,31.893 H 7.837 C 6.295,31.893 5.044,33.144 5.044,34.687 C 5.044,36.23 6.295,37.48 7.837,37.48 Z"
/>
<path id="ico10"
style="opacity:0.6"
d="M 46.708984,8.9179688 C 43.347054,8.9179688 40.123876,9.6033329 37.183594,10.841797 H 56.21875 C 53.263316,9.5972256 50.039584,8.9179687 46.708984,8.9179688 Z M 32.912109,13.181641 C 31.886035,13.881429 30.917462,14.658031 30.011719,15.503906 H 63.404297 C 62.498489,14.658518 61.533375,13.878506 60.511719,13.181641 Z M 27.802734,17.845703 C 27.19996,18.581273 26.648574,19.357941 26.134766,20.164062 H 67.283203 C 66.766194,19.35352 66.20379,18.58206 65.599609,17.845703 Z M 75.230469,19.601562 C 73.704155,19.601562 72.193706,19.806244 70.722656,20.164062 H 79.751953 C 78.29975,19.809653 76.791685,19.601562 75.230469,19.601562 Z M 24.802734,22.505859 C 24.436657,23.255142 24.12222,24.031398 23.833984,24.824219 H 88.306641 C 87.38979,23.954589 86.384716,23.180544 85.306641,22.505859 Z M 14.742188,27.166016 C 13.318058,27.750328 11.999827,28.532728 10.822266,29.484375 H 91.90625 C 91.462742,28.669073 90.94494,27.903534 90.388672,27.166016 Z M 8.484375,31.826172 C 7.8972816,32.551101 7.3681744,33.326017 6.9179688,34.148438 H 93.664062 C 93.479477,33.352844 93.238676,32.579801 92.955078,31.826172 Z M 5.8945312,36.488281 C 5.6337765,37.238239 5.4299658,38.012101 5.2871094,38.808594 H 94.134766 C 94.13873,38.650704 94.15821,38.496718 94.158203,38.337891 C 94.158203,37.713864 94.124983,37.096835 94.064453,36.488281 Z M 5.0507812,41.148438 C 5.0476485,41.275903 5.03125,41.401119 5.03125,41.529297 C 5.03125,42.186634 5.0878421,42.831458 5.1699219,43.46875 H 93.417969 C 93.635462,42.714184 93.801071,41.938335 93.921875,41.148438 Z M 5.6582031,45.808594 C 5.8942336,46.610969 6.1996764,47.383782 6.5585938,48.128906 H 63.287109 L 68.136719,50.470703 H 37.789062 L 41.5,48.519531 L 41.794922,48.242188 L 37.414062,50.470703 H 7.9492188 C 8.5530325,51.309834 9.2361011,52.084596 9.9921875,52.791016 H 32.853516 L 28.251953,55.132812 H 13.208984 C 15.365876,56.312976 17.826952,57.011591 20.443359,57.066406 C 24.422561,57.066984 21.03047,57.065912 24.449219,57.066406 L 0.85351562,69.072266 L 0.87890625,69.152344 L 1.3320312,69.451172 L 1.6894531,69.455078 L 25.246094,57.066406 C 48.736276,57.069803 49.20777,57.069723 53.654297,57.070312 L 53.939453,62.871094 L 54.884766,62.701172 L 54.375,57.070312 C 57.430804,57.070715 75.09392,57.074219 75.232422,57.074219 C 77.003879,57.074219 78.711953,56.819371 80.335938,56.361328 L 99.214844,65.476562 L 99.21875,64.861328 L 80.847656,56.210938 C 81.786819,55.917393 82.696437,55.558671 83.568359,55.132812 H 78.560547 L 73.587891,52.791016 H 87.265625 C 88.123216,52.090141 88.907608,51.30826 89.628906,50.470703 H 68.660156 L 63.6875,48.128906 H 91.339844 C 91.802333,47.38603 92.222285,46.61509 92.578125,45.808594 Z M 53.460938,48.232422 L 53.261719,48.267578 L 53.416016,50.201172 L 53.699219,50.148438 Z M 33.376953,52.791016 H 72.943359 L 77.792969,55.132812 H 28.923828 Z M 56.089844,74.353516 L 54.447266,74.628906 L 55.144531,92.041016 L 57.490234,91.640625 Z M 0,100 V 100 M 100,0 V 0"
/>

<path id="ico11"
d="M 100,100 L 100,100 M 0,0 L 0,0 M 19.838247,63.212891 A 2.30023,2.30023 0 0 0 17.693715,64.900391 L 11.627309,85.761719 A 2.30023,2.30023 0 1 0 16.043325,87.046875 L 22.111684,66.185547 A 2.30023,2.30023 0 0 0 19.838247,63.212891 Z M 37.705434,63.212891 A 2.30023,2.30023 0 0 0 35.560903,64.900391 L 29.494497,85.761719 A 2.30023,2.30023 0 1 0 33.910512,87.046875 L 39.978872,66.185547 A 2.30023,2.30023 0 0 0 37.705434,63.212891 Z M 55.572622,63.212891 A 2.30023,2.30023 0 0 0 53.42809,64.900391 L 47.361684,85.761719 A 2.30023,2.30023 0 1 0 51.7777,87.046875 L 57.846059,66.185547 A 2.30023,2.30023 0 0 0 55.572622,63.212891 Z M 73.439809,63.212891 A 2.30023,2.30023 0 0 0 71.295278,64.900391 L 65.228872,85.761719 A 2.30023,2.30023 0 1 0 69.644887,87.046875 L 75.713247,66.185547 A 2.30023,2.30023 0 0 0 73.439809,63.212891 Z M 74.854,59.506 C 74.487,59.506 74.487,59.506 19.587,59.498 C 10.993,59.318 4.041,52.288 4.041,43.825 C 4.041,35.179 11.146,28.144 19.879,28.144 C 20.771,28.144 21.657,28.218 22.533,28.366 C 25.559,18.13 35.095,10.93 46.083,10.93 C 54.951,10.93 63.079,15.676 67.414,23.201 C 69.759,22.218 72.291,21.706 74.853,21.706 C 85.382,21.706 93.947,30.185 93.947,40.605 C 93.948,51.028 85.384,59.506 74.854,59.506 Z M 19.88,32.831 C 13.731,32.831 8.728,37.763 8.728,43.825 C 8.728,49.758 13.623,54.686 19.637,54.811 C 74.488,54.819 74.488,54.819 74.855,54.819 C 82.799,54.819 89.263,48.443 89.263,40.606 C 89.263,32.769 82.799,26.393 74.855,26.393 C 72.291,26.393 69.767,27.07 67.559,28.352 C 66.985,28.685 66.295,28.759 65.665,28.556 C 65.032,28.353 64.518,27.891 64.245,27.285 C 61.061,20.196 53.933,15.616 46.084,15.616 C 36.506,15.616 28.296,22.354 26.562,31.638 C 26.436,32.306 26.029,32.886 25.443,33.229 C 24.856,33.573 24.149,33.644 23.507,33.427 C 22.334,33.032 21.113,32.831 19.88,32.831 Z"
/>
<path id="ico12"
d="M 100,100 L 100,100 M 0,0 L 0,0 M 19.838247,63.212891 A 2.30023,2.30023 0 0 0 17.693715,64.900391 L 11.627309,85.761719 A 2.30023,2.30023 0 1 0 16.043325,87.046875 L 22.111684,66.185547 A 2.30023,2.30023 0 0 0 19.838247,63.212891 Z M 37.705434,63.212891 A 2.30023,2.30023 0 0 0 35.560903,64.900391 L 29.494497,85.761719 A 2.30023,2.30023 0 1 0 33.910512,87.046875 L 39.978872,66.185547 A 2.30023,2.30023 0 0 0 37.705434,63.212891 Z M 55.572622,63.212891 A 2.30023,2.30023 0 0 0 53.42809,64.900391 L 47.361684,85.761719 A 2.30023,2.30023 0 1 0 51.7777,87.046875 L 57.846059,66.185547 A 2.30023,2.30023 0 0 0 55.572622,63.212891 Z M 73.439809,63.212891 A 2.30023,2.30023 0 0 0 71.295278,64.900391 L 65.228872,85.761719 A 2.30023,2.30023 0 1 0 69.644887,87.046875 L 75.713247,66.185547 A 2.30023,2.30023 0 0 0 73.439809,63.212891 Z M 74.854,59.506 C 74.487,59.506 74.487,59.506 19.587,59.498 C 10.993,59.318 4.041,52.288 4.041,43.825 C 4.041,35.179 11.146,28.144 19.879,28.144 C 20.771,28.144 21.657,28.218 22.533,28.366 C 25.559,18.13 35.095,10.93 46.083,10.93 C 54.951,10.93 63.079,15.676 67.414,23.201 C 69.759,22.218 72.291,21.706 74.853,21.706 C 85.382,21.706 93.947,30.185 93.947,40.605 C 93.948,51.028 85.384,59.506 74.854,59.506 Z"
/>
<path id="ico13"

/>
<path id="ico14"

/>
<path id="ico15"

/>
<path id="ico16"
d="M 100,100 L 100,100 M 0,0 L 0,0 M 48.068359,58.386719 A 2.30023,2.30023 0 0 0 45.917969,59.740234 L 35.980469,80.923828 L 45.832031,77.585938 L 37.994141,94.951172 A 2.3003321,2.3003321 0 1 0 42.1875,96.84375 L 54.376953,69.833984 L 44.730469,73.101562 L 50.082031,61.693359 A 2.30023,2.30023 0 0 0 48.068359,58.386719 Z M 19.263672,59.769531 A 2.30023,2.30023 0 0 0 17.191406,61.238281 L 7.3046875,85.808594 A 2.30023,2.30023 0 1 0 11.572266,87.525391 L 21.458984,62.957031 A 2.30023,2.30023 0 0 0 19.263672,59.769531 Z M 33.121094,59.769531 A 2.30023,2.30023 0 0 0 31.048828,61.238281 L 21.162109,85.808594 A 2.30023,2.30023 0 1 0 25.429688,87.525391 L 35.316406,62.957031 A 2.30023,2.30023 0 0 0 33.121094,59.769531 Z M 67.802734,59.769531 A 2.30023,2.30023 0 0 0 65.730469,61.238281 L 55.84375,85.808594 A 2.30023,2.30023 0 1 0 60.111328,87.525391 L 69.998047,62.957031 A 2.30023,2.30023 0 0 0 67.802734,59.769531 Z M 80.685547,59.769531 A 2.30023,2.30023 0 0 0 78.615234,61.238281 L 68.726562,85.808594 A 2.30023,2.30023 0 1 0 72.994141,87.525391 L 82.880859,62.957031 A 2.30023,2.30023 0 0 0 80.685547,59.769531 Z M 75.926,57.292 C 75.559,57.292 75.559,57.292 20.517,57.284 C 11.9,57.105 4.93,50.057 4.93,41.572 C 4.93,32.902 12.053,25.849 20.809,25.849 C 21.704,25.849 22.594,25.924 23.471,26.072 C 26.504,15.809 36.064,8.593 47.082,8.593 C 55.972,8.593 64.121,13.351 68.466,20.896 C 70.818,19.911 73.357,19.397 75.926,19.397 C 86.483,19.397 95.071,27.897 95.071,38.345 C 95.071,48.793 86.482,57.292 75.926,57.292 Z"
/>
<path id="ico17"
d="M 100,100 L 100,100 M 0,0 L 0,0 M 18.133168,65.03125 L 17.30895,66.226562 L 16.023794,70.642578 L 16.27184,72.488281 L 17.80309,73.544922 L 19.61559,73.123047 L 20.441762,71.927734 L 21.724965,67.511719 L 21.478872,65.666016 L 19.945668,64.609375 Z M 14.279653,78.28125 L 13.455434,79.476562 L 12.170278,83.894531 L 12.418325,85.738281 L 13.949575,86.796875 L 15.762075,86.375 L 16.586294,85.179688 L 17.87145,80.761719 L 17.623403,78.917969 L 16.092153,77.859375 Z M 36.000356,65.03125 L 35.176137,66.226562 L 33.890981,70.642578 L 34.139028,72.488281 L 35.670278,73.544922 L 37.482778,73.123047 L 38.30895,71.927734 L 39.592153,67.511719 L 39.346059,65.666016 L 37.812856,64.609375 Z M 32.14684,78.28125 L 31.322622,79.476562 L 30.037465,83.894531 L 30.285512,85.738281 L 31.816762,86.796875 L 33.629262,86.375 L 34.453481,85.179688 L 35.738637,80.761719 L 35.49059,78.917969 L 33.95934,77.859375 Z M 53.867544,65.03125 L 53.043325,66.226562 L 51.758168,70.642578 L 52.006215,72.488281 L 53.537465,73.544922 L 55.349965,73.123047 L 56.176137,71.927734 L 57.45934,67.511719 L 57.213247,65.666016 L 55.680044,64.609375 Z M 50.014028,78.28125 L 49.189809,79.476562 L 47.904653,83.894531 L 48.1527,85.738281 L 49.68395,86.796875 L 51.49645,86.375 L 52.320668,85.179688 L 53.605825,80.761719 L 53.357778,78.917969 L 51.826528,77.859375 Z M 71.734731,65.03125 L 70.910512,66.226562 L 69.625356,70.642578 L 69.873403,72.488281 L 71.404653,73.544922 L 73.217153,73.123047 L 74.043325,71.927734 L 75.326528,67.511719 L 75.080434,65.666016 L 73.549184,64.609375 Z M 67.881215,78.28125 L 67.056997,79.476562 L 65.77184,83.894531 L 66.019887,85.738281 L 67.551137,86.796875 L 69.363637,86.375 L 70.187856,85.179688 L 71.473012,80.761719 L 71.224965,78.917969 L 69.693715,77.859375 Z M 74.854,59.506 C 74.487,59.506 74.487,59.506 19.587,59.498 C 10.993,59.318 4.041,52.288 4.041,43.825 C 4.041,35.179 11.146,28.144 19.879,28.144 C 20.771,28.144 21.657,28.218 22.533,28.366 C 25.559,18.13 35.095,10.93 46.083,10.93 C 54.951,10.93 63.079,15.676 67.414,23.201 C 69.759,22.218 72.291,21.706 74.853,21.706 C 85.382,21.706 93.947,30.185 93.947,40.605 C 93.948,51.028 85.384,59.506 74.854,59.506 Z M 19.88,32.831 C 13.731,32.831 8.728,37.763 8.728,43.825 C 8.728,49.758 13.623,54.686 19.637,54.811 C 74.488,54.819 74.488,54.819 74.855,54.819 C 82.799,54.819 89.263,48.443 89.263,40.606 C 89.263,32.769 82.799,26.393 74.855,26.393 C 72.291,26.393 69.767,27.07 67.559,28.352 C 66.985,28.685 66.295,28.759 65.665,28.556 C 65.032,28.353 64.518,27.891 64.245,27.285 C 61.061,20.196 53.933,15.616 46.084,15.616 C 36.506,15.616 28.296,22.354 26.562,31.638 C 26.436,32.306 26.029,32.886 25.443,33.229 C 24.856,33.573 24.149,33.644 23.507,33.427 C 22.334,33.032 21.113,32.831 19.88,32.831 Z"
/>
<path id="ico17b"

/>
<path id="ico18"
d="M 100,100 L 100,100 M 0,0 L 0,0 M 73.523794,63.242188 A 2.30023,2.30023 0 0 0 71.389028,64.941406 L 63.443715,92.800781 A 2.30023,2.30023 0 1 0 67.867544,94.0625 L 75.812856,66.203125 A 2.30023,2.30023 0 0 0 73.523794,63.242188 Z M 62.810903,63.242188 A 2.30023,2.30023 0 0 0 60.676137,64.941406 L 52.730825,92.800781 A 2.30023,2.30023 0 1 0 57.154653,94.0625 L 65.099965,66.203125 A 2.30023,2.30023 0 0 0 62.810903,63.242188 Z M 52.098012,63.242188 A 2.30023,2.30023 0 0 0 49.963247,64.941406 L 42.017934,92.800781 A 2.30023,2.30023 0 1 0 46.441762,94.0625 L 54.385122,66.203125 A 2.30023,2.30023 0 0 0 52.098012,63.242188 Z M 41.383168,63.242188 A 2.30023,2.30023 0 0 0 39.248403,64.941406 L 31.305044,92.800781 A 2.30023,2.30023 0 1 0 35.726918,94.0625 L 43.672231,66.203125 A 2.30023,2.30023 0 0 0 41.383168,63.242188 Z M 30.670278,63.242188 A 2.30023,2.30023 0 0 0 28.535512,64.941406 L 20.5902,92.800781 A 2.30023,2.30023 0 1 0 25.014028,94.0625 L 32.95934,66.203125 A 2.30023,2.30023 0 0 0 30.670278,63.242188 Z M 19.957387,63.242188 A 2.30023,2.30023 0 0 0 17.822622,64.941406 L 9.8773089,92.800781 A 2.30023,2.30023 0 1 0 14.301137,94.0625 L 22.24645,66.203125 A 2.30023,2.30023 0 0 0 19.957387,63.242188 Z M 74.854,59.506 C 74.487,59.506 74.487,59.506 19.587,59.498 C 10.993,59.318 4.041,52.288 4.041,43.825 C 4.041,35.179 11.146,28.144 19.879,28.144 C 20.771,28.144 21.657,28.218 22.533,28.366 C 25.559,18.13 35.095,10.93 46.083,10.93 C 54.951,10.93 63.079,15.676 67.414,23.201 C 69.759,22.218 72.291,21.706 74.853,21.706 C 85.382,21.706 93.947,30.185 93.947,40.605 C 93.948,51.028 85.384,59.506 74.854,59.506 Z M 19.88,32.831 C 13.731,32.831 8.728,37.763 8.728,43.825 C 8.728,49.758 13.623,54.686 19.637,54.811 C 74.488,54.819 74.488,54.819 74.855,54.819 C 82.799,54.819 89.263,48.443 89.263,40.606 C 89.263,32.769 82.799,26.393 74.855,26.393 C 72.291,26.393 69.767,27.07 67.559,28.352 C 66.985,28.685 66.295,28.759 65.665,28.556 C 65.032,28.353 64.518,27.891 64.245,27.285 C 61.061,20.196 53.933,15.616 46.084,15.616 C 36.506,15.616 28.296,22.354 26.562,31.638 C 26.436,32.306 26.029,32.886 25.443,33.229 C 24.856,33.573 24.149,33.644 23.507,33.427 C 22.334,33.032 21.113,32.831 19.88,32.831 Z"
/>
<path id="ico19"

/>
<path id="icosr"
d="M 100,100 L 100,100 M 0,0 L 0,0 M 29.46,62.603 C 29.185,61.276 29.045,59.91 29.045,58.543 C 29.045,47.445 38.167,38.416 49.38,38.416 C 60.591,38.416 69.712,47.445 69.712,58.543 C 69.712,59.979 69.56,61.406 69.26,62.784 C 69.001,63.971 67.951,64.782 66.784,64.782 C 66.604,64.782 66.425,64.763 66.243,64.724 C 64.874,64.426 64.005,63.075 64.303,61.706 C 64.527,60.681 64.639,59.617 64.639,58.543 C 64.639,50.242 57.794,43.489 49.38,43.489 C 40.964,43.489 34.118,50.242 34.118,58.543 C 34.118,59.564 34.222,60.585 34.427,61.574 C 34.711,62.946 33.829,64.288 32.458,64.573 C 31.081,64.854 29.743,63.974 29.46,62.603 Z M 36.976,35.382 C 37.383,36.354 38.325,36.939 39.316,36.939 C 39.643,36.939 39.976,36.875 40.296,36.741 C 41.587,36.199 42.195,34.714 41.653,33.421 L 39.2,27.567 C 38.659,26.275 37.173,25.668 35.881,26.209 C 34.589,26.75 33.981,28.236 34.523,29.529 Z M 58.57,36.741 C 58.89,36.875 59.222,36.939 59.549,36.939 C 60.54,36.939 61.483,36.354 61.889,35.382 L 64.342,29.529 C 64.883,28.237 64.274,26.75 62.983,26.209 C 61.69,25.668 60.204,26.277 59.663,27.568 L 57.211,33.421 C 56.67,34.713 57.278,36.199 58.57,36.741 Z M 73.859,51.08 C 74.178,51.08 74.505,51.019 74.819,50.89 L 80.741,48.466 C 82.038,47.935 82.659,46.454 82.128,45.158 C 81.597,43.862 80.117,43.241 78.819,43.771 L 72.897,46.195 C 71.602,46.725 70.981,48.207 71.51,49.504 C 71.913,50.486 72.86,51.08 73.859,51.08 Z M 18.124,48.466 L 24.044,50.89 C 24.358,51.019 24.685,51.08 25.005,51.08 C 26.003,51.08 26.95,50.486 27.353,49.504 C 27.884,48.208 27.263,46.726 25.966,46.195 L 20.046,43.772 C 18.747,43.241 17.268,43.861 16.737,45.158 C 16.206,46.455 16.827,47.936 18.124,48.466 Z M 92.168,67.989 H 7.831 C 6.431,67.989 5.296,69.589 5.296,70.989 C 5.296,72.389 6.431,73.989 7.831,73.989 H 92.168 C 93.569,73.989 94.704,72.389 94.704,70.989 C 94.704,69.589 93.569,67.989 92.168,67.989 Z M 49.554,64.594 C 50.429,64.594 51.054,63.885 51.054,63.009 V 54.572 L 52.603,56.18 C 53.21,56.811 54.214,56.831 54.844,56.223 C 55.476,55.616 55.494,54.612 54.887,53.982 L 50.539,49.464 C 50.24,49.153 49.792,48.978 49.36,48.978 C 48.917,48.978 48.493,49.164 48.192,49.491 L 43.844,54.228 C 43.252,54.874 43.295,55.876 43.941,56.468 C 44.587,57.06 45.589,57.017 46.18,56.372 L 48.053,54.331 V 63.007 C 48.054,63.884 48.677,64.594 49.554,64.594 Z"
/>
<path id="icoss"
d="M 100,100 L 100,100 M 0,0 L 0,0 M 29.459,62.603 C 29.184,61.276 29.044,59.91 29.044,58.543 C 29.044,47.445 38.167,38.416 49.379,38.416 C 60.589,38.416 69.711,47.445 69.711,58.543 C 69.711,59.979 69.559,61.406 69.259,62.784 C 69.001,63.971 67.95,64.782 66.783,64.782 C 66.604,64.782 66.424,64.763 66.242,64.724 C 64.873,64.426 64.004,63.075 64.302,61.706 C 64.525,60.681 64.638,59.617 64.638,58.543 C 64.638,50.242 57.793,43.489 49.379,43.489 C 40.963,43.489 34.117,50.242 34.117,58.543 C 34.117,59.564 34.221,60.585 34.426,61.574 C 34.71,62.946 33.828,64.288 32.457,64.573 C 31.082,64.854 29.744,63.974 29.459,62.603 Z M 36.976,35.382 C 37.383,36.354 38.325,36.939 39.316,36.939 C 39.643,36.939 39.975,36.875 40.295,36.741 C 41.587,36.199 42.195,34.714 41.653,33.421 L 39.2,27.568 C 38.658,26.276 37.173,25.669 35.88,26.21 C 34.588,26.751 33.98,28.237 34.521,29.53 Z M 58.57,36.741 C 58.89,36.875 59.222,36.939 59.549,36.939 C 60.54,36.939 61.482,36.354 61.889,35.382 L 64.341,29.529 C 64.883,28.237 64.274,26.75 62.982,26.209 C 61.69,25.668 60.204,26.277 59.662,27.568 L 57.21,33.421 C 56.67,34.713 57.279,36.199 58.57,36.741 Z M 73.859,51.08 C 74.179,51.08 74.505,51.019 74.819,50.89 L 80.741,48.466 C 82.037,47.935 82.658,46.454 82.128,45.158 C 81.597,43.862 80.117,43.241 78.819,43.771 L 72.897,46.195 C 71.601,46.725 70.98,48.207 71.51,49.504 C 71.914,50.486 72.86,51.08 73.859,51.08 Z M 18.124,48.466 L 24.045,50.89 C 24.359,51.019 24.685,51.08 25.005,51.08 C 26.004,51.08 26.951,50.486 27.353,49.504 C 27.884,48.208 27.263,46.726 25.967,46.195 L 20.047,43.772 C 18.748,43.241 17.269,43.861 16.738,45.158 C 16.207,46.455 16.827,47.936 18.124,48.466 Z M 92.168,67.989 H 7.832 C 6.431,67.989 5.296,69.589 5.296,70.989 C 5.296,72.389 6.431,73.989 7.832,73.989 H 92.168 C 93.569,73.989 94.705,72.389 94.705,70.989 C 94.705,69.589 93.569,67.989 92.168,67.989 Z M 49.205,48.979 C 48.329,48.979 47.705,49.688 47.705,50.564 V 59.002 L 46.156,57.393 C 45.549,56.762 44.545,56.742 43.915,57.35 C 43.284,57.957 43.265,58.961 43.872,59.591 L 48.22,64.109 C 48.519,64.42 48.967,64.595 49.398,64.595 C 49.842,64.595 50.265,64.409 50.566,64.082 L 54.914,59.345 C 55.506,58.699 55.463,57.697 54.818,57.105 C 54.173,56.513 53.17,56.556 52.578,57.201 L 50.706,59.241 V 50.566 C 50.705,49.688 50.081,48.979 49.205,48.979 Z"
/>
<path id="cardinalNSEW"
d="M 100,0 V 100 H 100 V 0 Z M 0,0 V 0 Z M 49.5,9.4902344 V 25.400391 H 50.5 V 9.4902344 Z M 49.5,9.4902344 V 25.400391 H 50.5 V 9.4902344 Z M 74.595703,49.496094 V 50.496094 H 90.505859 V 49.496094 Z M 49.5,74.591797 V 90.501953 H 50.5 V 74.591797 Z M 9.4941406,49.496094 V 50.496094 H 25.404297 V 49.496094 Z M 49.5,9.4902344 V 25.400391 H 50.5 V 9.4902344 Z M 78.525391,21 L 71.039062,28.486328 L 71.509766,28.957031 L 78.996094,21.470703 Z M 49.5,9.4902344 V 25.400391 H 50.5 V 9.4902344 Z M 65.628906,12.382812 L 63.425781,17.701172 L 63.759766,17.837891 L 65.962891,12.521484 Z M 65.628906,12.382812 L 63.425781,17.701172 L 63.759766,17.837891 L 65.962891,12.521484 Z M 87.650391,34.451172 L 82.332031,36.654297 L 82.470703,36.988281 L 87.789062,34.785156 Z M 82.298828,63.425781 L 82.160156,63.759766 L 87.478516,65.962891 L 87.617188,65.628906 Z M 63.345703,82.332031 L 63.011719,82.470703 L 65.212891,87.789062 L 65.548828,87.650391 Z M 36.240234,82.160156 L 34.037109,87.478516 L 34.371094,87.617188 L 36.574219,82.298828 Z M 17.529297,63.009766 L 12.210938,65.212891 L 12.349609,65.546875 L 17.667969,63.345703 Z M 12.521484,34.037109 L 12.382812,34.371094 L 17.701172,36.574219 L 17.839844,36.240234 Z M 34.785156,12.210938 L 34.451172,12.349609 L 36.654297,17.667969 L 36.988281,17.529297 Z M 78.525391,21 L 71.039062,28.486328 L 71.509766,28.957031 L 78.996094,21.470703 Z M 71.515625,71.039062 L 71.044922,71.509766 L 78.53125,78.996094 L 79.001953,78.525391 Z M 28.492188,71.044922 L 21.005859,78.53125 L 21.476562,79.001953 L 28.962891,71.515625 Z M 21.470703,21.005859 L 21,21.476562 L 28.486328,28.962891 L 28.957031,28.492188 Z M 47.336848,0.49906088 H 48.618931 L 51.739297,6.3862776 V 0.49906088 H 52.663151 V 7.536381 H 51.381067 L 48.260703,1.6491657 V 7.536381 H 47.336848 Z M 51.777558,92.642033 V 93.482509 C 51.526381,93.353701 51.265544,93.257095 50.995046,93.19269 C 50.72455,93.128285 50.44439,93.096084 50.15457,93.096084 C 49.713401,93.096084 49.381718,93.163709 49.159524,93.298956 C 48.94055,93.434206 48.831063,93.637079 48.831063,93.907578 C 48.831063,94.113672 48.909957,94.276293 49.067748,94.39544 C 49.225538,94.511368 49.542729,94.622464 50.019321,94.728732 L 50.323631,94.796357 C 50.954793,94.931606 51.402404,95.123208 51.666461,95.371165 C 51.933738,95.615901 52.067377,95.958854 52.067377,96.400023 C 52.067377,96.902376 51.867725,97.300072 51.468418,97.593112 C 51.072333,97.886152 50.526505,98.032671 49.830939,98.032671 C 49.541119,98.032671 49.238419,98.00369 48.922838,97.945727 C 48.610478,97.890982 48.280405,97.807257 47.932622,97.69455 V 96.776788 C 48.261084,96.947459 48.584716,97.076268 48.903517,97.163214 C 49.222318,97.246939 49.5379,97.288802 49.85026,97.288802 C 50.268888,97.288802 50.59091,97.217957 50.816323,97.076268 C 51.041739,96.931359 51.154447,96.728485 51.154447,96.467648 C 51.154447,96.226131 51.07233,96.040968 50.9081,95.912161 C 50.74709,95.783353 50.391256,95.659374 49.840599,95.540226 L 49.531459,95.467771 C 48.980801,95.351844 48.583106,95.174731 48.33837,94.936436 C 48.093633,94.694919 47.971265,94.364847 47.971265,93.94622 C 47.971265,93.437426 48.151597,93.044559 48.512261,92.767621 C 48.872924,92.490682 49.384938,92.352213 50.048303,92.352213 C 50.376767,92.352213 50.685907,92.376365 50.975724,92.424669 C 51.265544,92.472972 51.532821,92.545427 51.777558,92.642033 Z M 92.404297,46.446407 H 96.898057 V 47.255665 H 93.365886 V 49.359735 H 96.750487 V 50.168993 H 93.365886 V 52.744337 H 96.983743 V 53.553594 H 92.404297 Z M 0.90132422,47.157125 H 1.6782117 L 2.87401,51.963165 L 4.0659988,47.157125 H 4.9304768 L 6.1262737,51.963165 L 7.3182625,47.157125 H 8.098958 L 6.6708568,52.842875 H 5.7035562 L 4.5039499,47.907355 L 3.2929194,52.842875 H 2.3256189 Z"
/>
<path id="cardinalPointer"
d="M 15.9757,46.0468 C 15.9677,45.9778 15.9577,45.9118 15.9347,45.8458 C 15.9127,45.7798 15.8797,45.7228 15.8447,45.6638 C 15.8237,45.6278 15.8157,45.5868 15.7897,45.5528 L 8.9997,36.8238 V 12.1098 L 14.4187,15.9808 C 14.4287,15.9878 14.4397,15.9898 14.4497,15.9958 C 14.5067,16.0338 14.5677,16.0618 14.6307,16.0868 C 14.6597,16.0978 14.6867,16.1148 14.7157,16.1238 C 14.8027,16.1488 14.8917,16.1628 14.9827,16.1648 C 14.9877,16.1648 14.9937,16.1668 14.9987,16.1668 H 14.9997 H 15.0007 C 15.1507,16.1668 15.3037,16.1328 15.4477,16.0618 C 15.4477,16.0608 15.4477,16.0608 15.4487,16.0608 C 15.4537,16.0578 15.4567,16.0528 15.4617,16.0508 C 15.5937,15.9808 15.6997,15.8838 15.7857,15.7718 C 15.7937,15.7618 15.8067,15.7588 15.8137,15.7478 C 15.8417,15.7098 15.8487,15.6638 15.8697,15.6228 C 15.9027,15.5598 15.9367,15.4998 15.9557,15.4318 C 15.9727,15.3698 15.9747,15.3078 15.9797,15.2448 C 15.9847,15.1808 15.9927,15.1188 15.9847,15.0538 C 15.9767,14.9838 15.9527,14.9198 15.9307,14.8538 C 15.9157,14.8088 15.9157,14.7628 15.8947,14.7198 L 8.8947,0.7198 C 8.8767,0.6838 8.8447,0.6618 8.8237,0.6288 C 8.7927,0.5818 8.7677,0.5338 8.7287,0.4918 C 8.7117,0.4728 8.6937,0.4558 8.6747,0.4378 C 8.6327,0.3998 8.5847,0.3738 8.5377,0.3428 C 8.5047,0.3218 8.4827,0.2898 8.4477,0.2728 C 8.4377,0.2678 8.4267,0.2688 8.4167,0.2638 C 8.3957,0.2538 8.3737,0.2468 8.3517,0.2378 C 8.2967,0.2168 8.2397,0.2118 8.1817,0.2008 C 8.1307,0.1908 8.0807,0.1748 8.0297,0.1728 C 8.0187,0.1728 8.0107,0.1668 7.9997,0.1668 C 7.9897,0.1668 7.9807,0.1728 7.9707,0.1728 C 7.9187,0.1748 7.8697,0.1908 7.8177,0.2008 C 7.7597,0.2118 7.7027,0.2168 7.6477,0.2378 C 7.6257,0.2468 7.6047,0.2538 7.5827,0.2638 C 7.5737,0.2688 7.5627,0.2678 7.5527,0.2728 C 7.5167,0.2898 7.4947,0.3218 7.4627,0.3428 C 7.4147,0.3738 7.3667,0.3998 7.3247,0.4378 C 7.3057,0.4558 7.2887,0.4728 7.2707,0.4918 C 7.2327,0.5338 7.2067,0.5818 7.1767,0.6288 C 7.1547,0.6618 7.1237,0.6838 7.1057,0.7198 L 0.1057,14.7198 C 0.0837,14.7628 0.0837,14.8088 0.0697,14.8538 C 0.0467,14.9198 0.0227,14.9838 0.0147,15.0538 C 0.0077,15.1188 0.0147,15.1808 0.0197,15.2448 C 0.0247,15.3078 0.0267,15.3698 0.0447,15.4318 C 0.0637,15.4998 0.0967,15.5598 0.1297,15.6228 C 0.1517,15.6638 0.1587,15.7098 0.1857,15.7478 C 0.1937,15.7588 0.2067,15.7618 0.2147,15.7718 C 0.2997,15.8838 0.4057,15.9808 0.5387,16.0508 C 0.5437,16.0528 0.5467,16.0578 0.5517,16.0608 C 0.5517,16.0608 0.5517,16.0608 0.5527,16.0618 C 0.6967,16.1328 0.8487,16.1668 0.9987,16.1668 H 1.0007 V 16.1668 C 1.0067,16.1668 1.0117,16.1648 1.0177,16.1648 C 1.1087,16.1628 1.1977,16.1488 1.2837,16.1238 C 1.3137,16.1148 1.3407,16.0978 1.3697,16.0868 C 1.4327,16.0618 1.4937,16.0338 1.5507,15.9958 C 1.5607,15.9898 1.5717,15.9878 1.5807,15.9808 L 6.9997,12.1098 V 36.8238 L 0.2107,45.5528 C 0.1837,45.5868 0.1767,45.6278 0.1557,45.6638 C 0.1197,45.7228 0.0877,45.7798 0.0647,45.8458 C 0.0417,45.9118 0.0327,45.9778 0.0247,46.0468 C 0.0187,46.0878 -3e-4,46.1248 -3e-4,46.1668 V 59.1668 C -3e-4,59.1878 0.0107,59.2058 0.0117,59.2268 C 0.0167,59.2968 0.0347,59.3608 0.0527,59.4288 C 0.0697,59.4888 0.0827,59.5478 0.1097,59.6028 C 0.1367,59.6578 0.1747,59.7038 0.2117,59.7538 C 0.2537,59.8098 0.2937,59.8638 0.3457,59.9098 C 0.3617,59.9238 0.3697,59.9438 0.3867,59.9568 C 0.4307,59.9908 0.4817,60.0078 0.5297,60.0338 C 0.5677,60.0548 0.6027,60.0788 0.6437,60.0948 C 0.7597,60.1398 0.8787,60.1668 0.9997,60.1668 V 60.1668 V 60.1668 C 1.1477,60.1668 1.2847,60.1308 1.4107,60.0738 C 1.4457,60.0578 1.4717,60.0298 1.5047,60.0108 C 1.5947,59.9558 1.6777,59.8948 1.7467,59.8148 C 1.7597,59.8008 1.7777,59.7958 1.7897,59.7808 L 7.9997,51.7958 L 14.2107,59.7808 C 14.2227,59.7958 14.2407,59.8008 14.2537,59.8148 C 14.3227,59.8948 14.4047,59.9558 14.4957,60.0108 C 14.5287,60.0298 14.5547,60.0578 14.5887,60.0738 C 14.7147,60.1308 14.8527,60.1668 14.9997,60.1668 H 15.0007 V 60.1668 C 15.1217,60.1668 15.2407,60.1398 15.3567,60.0948 C 15.3977,60.0788 15.4317,60.0548 15.4707,60.0338 C 15.5187,60.0078 15.5697,59.9908 15.6137,59.9568 C 15.6307,59.9438 15.6377,59.9238 15.6537,59.9098 C 15.7067,59.8638 15.7467,59.8098 15.7887,59.7538 C 15.8257,59.7038 15.8637,59.6578 15.8897,59.6028 C 15.9177,59.5478 15.9307,59.4888 15.9467,59.4288 C 15.9657,59.3608 15.9837,59.2968 15.9877,59.2268 C 15.9887,59.2058 15.9997,59.1878 15.9997,59.1668 V 46.1668 C 15.9997,46.1248 15.9807,46.0878 15.9757,46.0468"
/>
</defs>

<g>    
    <path id="line1"
    d="M300 50 L300 325" stroke="black" stroke-width="3" stroke-linecap="round"/>
    <path id="line2"
    d="M75 375 L525 375" stroke="black" stroke-width="3" stroke-linecap="round"/>
    <path id="line3"
    d="M75 500 L525 500" stroke="black" stroke-width="3" stroke-linecap="round"/>
    <path id="line4"
    d="M200 550 L200 750" stroke="black" stroke-width="3" stroke-linecap="round"/>
    <path id="line5"
    d="M400 550 L400 750" stroke="black" stroke-width="3" stroke-linecap="round"/>
</g>
     
<g transform="scale(1.5) translate(50 35)">
<use xlink:href="#ico2"/>
</g>

<g transform="scale(1.1) translate(41 495)">
<use xlink:href="#ico3"/>
</g>

<g transform="scale(1.1) translate(223 495)">
<use xlink:href="#ico1"/>
</g>

<g transform="scale(1.1) translate(404.5 495)">
<use xlink:href="#ico3"/>
</g>

<g transform="translate(400 213)">
<use xlink:href="#cardinalNSEW"/>
</g>

<g transform="translate(442 233) rotate(435 8 30)" visibility="visible">
<use xlink:href="#cardinalPointer"/>
</g>

<g font-family="DejaVu Sans">
    <text style="text-anchor:middle;text-align:center;font-size:40px;" x="150" y="40">Today</text>
    <text style="text-anchor:end;text-align:right;font-size:20px;" x="90" y="230">HIGH:</text>
    <text style="text-anchor:end;text-align:right;font-size:75px;" x="198" y="270"></text>
    <text style="text-anchor:start;text-align:left;font-size:35px;" x="198" y="241">°C</text>
    
    <text style="text-anchor:end;text-align:right;font-size:20px;" x="90" y="315">LOW:</text>  
    <text style="text-anchor:end;text-align:right;font-size:75px;" x="198" y="355"></text>
    <text style="text-anchor:start;text-align:left;font-size:35px;" x="198" y="326">°C</text>  
    
    <text style="text-anchor:middle;text-align:center;font-size:40px;" x="450" y="40">Now</text>
    <text style="text-anchor:end;text-align:right;font-size:15px;" x="354.5" y="90">FEELS:</text>
    <text style="text-anchor:end;text-align:right;font-size:90px;" x="550" y="145">12.0</text>
    <text style="text-anchor:start;text-align:left;font-size:35px;" x="550" y="105">°C</text>
    
    <text style="text-anchor:end;text-align:right;font-size:15px;" x="400" y="172">ACTUAL:</text>
    <text style="text-anchor:end;text-align:right;font-size:15px;" x="460" y="172">17.4</text>
    <text style="text-anchor:start;text-align:left;font-size:10px;" x="460" y="168">°C</text>
    
    <text style="text-anchor:end;text-align:right;font-size:15px;" x="400" y="196">HUMIDITY:</text>
    <text style="text-anchor:end;text-align:right;font-size:15px;" x="460" y="196">33</text>
    <text style="text-anchor:start;text-align:left;font-size:10px;" x="461" y="192">%</text>
    
    <text style="text-anchor:end;text-align:right;font-size:15px;" x="400" y="220">WIND:</text>
    
    <text style="text-anchor:end;text-align:right;font-size:15px;" x="400" y="335">WIND SPD:</text>
    <text style="text-anchor:end;text-align:right;font-size:15px;" x="460" y="335">10</text>
    <text style="text-anchor:start;text-align:left;font-size:10px;" x="461" y="331">knots</text>
    <text style="text-anchor:end;text-align:right;font-size:15px;" x="460" y="352">19</text>
    <text style="text-anchor:start;text-align:left;font-size:10px;" x="461" y="348">km/hr</text>
        
    <text style="text-anchor:middle;text-align:center;font-size:20px;" x="300" y="382"><tspan dy="22" x="300">Clear</tspan><tspan dy="22" x="300">Winds westerly 15 to 25 km/h becoming light in</tspan><tspan dy="22" x="300">the late evening</tspan></text>
   
    <text style="text-anchor:middle;text-align:center;font-size:25px;" x="100" y="535">Tomorrow</text>
    <text style="text-anchor:end;text-align:right;font-size:12px;" x="60" y="701">HIGH:</text>
    <text style="text-anchor:end;text-align:right;font-size:45px;" x="130" y="725">23</text>
    <text style="text-anchor:start;text-align:left;font-size:21px;" x="130" y="708">°C</text>
    <text style="text-anchor:end;text-align:right;font-size:12px;" x="60" y="751">LOW:</text>
    <text style="text-anchor:end;text-align:right;font-size:45px;" x="130" y="775">13</text>
    <text style="text-anchor:start;text-align:left;font-size:21px;" x="130" y="758">°C</text>
    <text style="text-anchor:middle;text-align:center;font-size:17px;" x="100" y="651"><tspan dy="17" x="100">Mostly sunny</tspan></text>
    
    <text style="text-anchor:middle;text-align:center;font-size:25px;" x="300" y="535">Wednesday</text>
    <text style="text-anchor:end;text-align:right;font-size:12px;" x="260" y="701">HIGH:</text>
    <text style="text-anchor:end;text-align:right;font-size:45px;" x="330" y="725">24</text>
    <text style="text-anchor:start;text-align:left;font-size:21px;" x="330" y="708">°C</text>
    <text style="text-anchor:end;text-align:right;font-size:12px;" x="260" y="751">LOW:</text>
    <text style="text-anchor:end;text-align:right;font-size:45px;" x="330" y="775">11</text>
    <text style="text-anchor:start;text-align:left;font-size:21px;" x="330" y="758">°C</text>
    <text style="text-anchor:middle;text-align:center;font-size:17px;" x="300" y="651"><tspan dy="17" x="300">Sunny</tspan></text>
        
    <text style="text-anchor:middle;text-align:center;font-size:25px;" x="500" y="535">Thursday</text>
    <text style="text-anchor:end;text-align:right;font-size:12px;" x="460" y="701">HIGH:</text>
    <text style="text-anchor:end;text-align:right;font-size:45px;" x="530" y="725">26</text>
    <text style="text-anchor:start;text-align:left;font-size:21px;" x="530" y="708">°C</text>
    <text style="text-anchor:end;text-align:right;font-size:12px;" x="460" y="751">LOW:</text>
    <text style="text-anchor:end;text-align:right;font-size:45px;" x="530" y="775">13</text>
    <text style="text-anchor:start;text-align:left;font-size:21px;" x="530" y="758">°C</text>
    <text style="text-anchor:middle;text-align:center;font-size:17px;" x="500" y="651"><tspan dy="17" x="500">Partly cloudy</tspan></text>
    
    <text style="text-anchor:end;text-align:right;font-size:8px;" x="100" y="800">LAST UPDATE:</text>
    <text style="text-anchor:start;text-align:left;font-size:8px;" x="102" y="800">2021-10-05  01:29:10</text>
    
    <text style="text-anchor:end;text-align:right;font-size:8px;" x="300" y="800">FORECAST DATA:</text>
    <text style="text-anchor:start;text-align:left;font-size:8px;" x="302" y="800">2021-10-04  16:20:00</text>
    
    <text style="text-anchor:end;text-align:right;font-size:8px;" x="500" y="800">OBSERVATION DATA:</text>
    <text style="text-anchor:start;text-align:left;font-size:8px;" x="502" y="800">2021-10-05  01:21:02</text>
</g>
</svg>
