<svg xmlns="http://www.w3.org/2000/svg" height="60" width="16" version="1.1">
  <path
    d="M 15.9757,46.0468 C 15.9677,45.9778 15.9577,45.9118 15.9347,45.8458 C 15.9127,45.7798 15.8797,45.7228 15.8447,45.6638 C 15.8237,45.6278 15.8157,45.5868 15.7897,45.5528 L 8.9997,36.8238 V 12.1098 L 14.4187,15.9808 C 14.4287,15.9878 14.4397,15.9898 14.4497,15.9958 C 14.5067,16.0338 14.5677,16.0618 14.6307,16.0868 C 14.6597,16.0978 14.6867,16.1148 14.7157,16.1238 C 14.8027,16.1488 14.8917,16.1628 14.9827,16.1648 C 14.9877,16.1648 14.9937,16.1668 14.9987,16.1668 H 14.9997 H 15.0007 C 15.1507,16.1668 15.3037,16.1328 15.4477,16.0618 C 15.4477,16.0608 15.4477,16.0608 15.4487,16.0608 C 15.4537,16.0578 15.4567,16.0528 15.4617,16.0508 C 15.5937,15.9808 15.6997,15.8838 15.7857,15.7718 C 15.7937,15.7618 15.8067,15.7588 15.8137,15.7478 C 15.8417,15.7098 15.8487,15.6638 15.8697,15.6228 C 15.9027,15.5598 15.9367,15.4998 15.9557,15.4318 C 15.9727,15.3698 15.9747,15.3078 15.9797,15.2448 C 15.9847,15.1808 15.9927,15.1188 15.9847,15.0538 C 15.9767,14.9838 15.9527,14.9198 15.9307,14.8538 C 15.9157,14.8088 15.9157,14.7628 15.8947,14.7198 L 8.8947,0.7198 C 8.8767,0.6838 8.8447,0.6618 8.8237,0.6288 C 8.7927,0.5818 8.7677,0.5338 8.7287,0.4918 C 8.7117,0.4728 8.6937,0.4558 8.6747,0.4378 C 8.6327,0.3998 8.5847,0.3738 8.5377,0.3428 C 8.5047,0.3218 8.4827,0.2898 8.4477,0.2728 C 8.4377,0.2678 8.4267,0.2688 8.4167,0.2638 C 8.3957,0.2538 8.3737,0.2468 8.3517,0.2378 C 8.2967,0.2168 8.2397,0.2118 8.1817,0.2008 C 8.1307,0.1908 8.0807,0.1748 8.0297,0.1728 C 8.0187,0.1728 8.0107,0.1668 7.9997,0.1668 C 7.9897,0.1668 7.9807,0.1728 7.9707,0.1728 C 7.9187,0.1748 7.8697,0.1908 7.8177,0.2008 C 7.7597,0.2118 7.7027,0.2168 7.6477,0.2378 C 7.6257,0.2468 7.6047,0.2538 7.5827,0.2638 C 7.5737,0.2688 7.5627,0.2678 7.5527,0.2728 C 7.5167,0.2898 7.4947,0.3218 7.4627,0.3428 C 7.4147,0.3738 7.3667,0.3998 7.3247,0.4378 C 7.3057,0.4558 7.2887,0.4728 7.2707,0.4918 C 7.2327,0.5338 7.2067,0.5818 7.1767,0.6288 C 7.1547,0.6618 7.1237,0.6838 7.1057,0.7198 L 0.1057,14.7198 C 0.0837,14.7628 0.0837,14.8088 0.0697,14.8538 C 0.0467,14.9198 0.0227,14.9838 0.0147,15.0538 C 0.0077,15.1188 0.0147,15.1808 0.0197,15.2448 C 0.0247,15.3078 0.0267,15.3698 0.0447,15.4318 C 0.0637,15.4998 0.0967,15.5598 0.1297,15.6228 C 0.1517,15.6638 0.1587,15.7098 0.1857,15.7478 C 0.1937,15.7588 0.2067,15.7618 0.2147,15.7718 C 0.2997,15.8838 0.4057,15.9808 0.5387,16.0508 C 0.5437,16.0528 0.5467,16.0578 0.5517,16.0608 C 0.5517,16.0608 0.5517,16.0608 0.5527,16.0618 C 0.6967,16.1328 0.8487,16.1668 0.9987,16.1668 H 1.0007 V 16.1668 C 1.0067,16.1668 1.0117,16.1648 1.0177,16.1648 C 1.1087,16.1628 1.1977,16.1488 1.2837,16.1238 C 1.3137,16.1148 1.3407,16.0978 1.3697,16.0868 C 1.4327,16.0618 1.4937,16.0338 1.5507,15.9958 C 1.5607,15.9898 1.5717,15.9878 1.5807,15.9808 L 6.9997,12.1098 V 36.8238 L 0.2107,45.5528 C 0.1837,45.5868 0.1767,45.6278 0.1557,45.6638 C 0.1197,45.7228 0.0877,45.7798 0.0647,45.8458 C 0.0417,45.9118 0.0327,45.9778 0.0247,46.0468 C 0.0187,46.0878 -3e-4,46.1248 -3e-4,46.1668 V 59.1668 C -3e-4,59.1878 0.0107,59.2058 0.0117,59.2268 C 0.0167,59.2968 0.0347,59.3608 0.0527,59.4288 C 0.0697,59.4888 0.0827,59.5478 0.1097,59.6028 C 0.1367,59.6578 0.1747,59.7038 0.2117,59.7538 C 0.2537,59.8098 0.2937,59.8638 0.3457,59.9098 C 0.3617,59.9238 0.3697,59.9438 0.3867,59.9568 C 0.4307,59.9908 0.4817,60.0078 0.5297,60.0338 C 0.5677,60.0548 0.6027,60.0788 0.6437,60.0948 C 0.7597,60.1398 0.8787,60.1668 0.9997,60.1668 V 60.1668 V 60.1668 C 1.1477,60.1668 1.2847,60.1308 1.4107,60.0738 C 1.4457,60.0578 1.4717,60.0298 1.5047,60.0108 C 1.5947,59.9558 1.6777,59.8948 1.7467,59.8148 C 1.7597,59.8008 1.7777,59.7958 1.7897,59.7808 L 7.9997,51.7958 L 14.2107,59.7808 C 14.2227,59.7958 14.2407,59.8008 14.2537,59.8148 C 14.3227,59.8948 14.4047,59.9558 14.4957,60.0108 C 14.5287,60.0298 14.5547,60.0578 14.5887,60.0738 C 14.7147,60.1308 14.8527,60.1668 14.9997,60.1668 H 15.0007 V 60.1668 C 15.1217,60.1668 15.2407,60.1398 15.3567,60.0948 C 15.3977,60.0788 15.4317,60.0548 15.4707,60.0338 C 15.5187,60.0078 15.5697,59.9908 15.6137,59.9568 C 15.6307,59.9438 15.6377,59.9238 15.6537,59.9098 C 15.7067,59.8638 15.7467,59.8098 15.7887,59.7538 C 15.8257,59.7038 15.8637,59.6578 15.8897,59.6028 C 15.9177,59.5478 15.9307,59.4888 15.9467,59.4288 C 15.9657,59.3608 15.9837,59.2968 15.9877,59.2268 C 15.9887,59.2058 15.9997,59.1878 15.9997,59.1668 V 46.1668 C 15.9997,46.1248 15.9807,46.0878 15.9757,46.0468"
    />
</svg>
