<svg xmlns="http://www.w3.org/2000/svg" height="100" width="100" version="1.1">
    <path 
d="M 100,0 V 100 H 100 V 0 Z M 0,0 V 0 Z M 49.5,9.4902344 V 25.400391 H 50.5 V 9.4902344 Z M 49.5,9.4902344 V 25.400391 H 50.5 V 9.4902344 Z M 74.595703,49.496094 V 50.496094 H 90.505859 V 49.496094 Z M 49.5,74.591797 V 90.501953 H 50.5 V 74.591797 Z M 9.4941406,49.496094 V 50.496094 H 25.404297 V 49.496094 Z M 49.5,9.4902344 V 25.400391 H 50.5 V 9.4902344 Z M 78.525391,21 L 71.039062,28.486328 L 71.509766,28.957031 L 78.996094,21.470703 Z M 49.5,9.4902344 V 25.400391 H 50.5 V 9.4902344 Z M 65.628906,12.382812 L 63.425781,17.701172 L 63.759766,17.837891 L 65.962891,12.521484 Z M 65.628906,12.382812 L 63.425781,17.701172 L 63.759766,17.837891 L 65.962891,12.521484 Z M 87.650391,34.451172 L 82.332031,36.654297 L 82.470703,36.988281 L 87.789062,34.785156 Z M 82.298828,63.425781 L 82.160156,63.759766 L 87.478516,65.962891 L 87.617188,65.628906 Z M 63.345703,82.332031 L 63.011719,82.470703 L 65.212891,87.789062 L 65.548828,87.650391 Z M 36.240234,82.160156 L 34.037109,87.478516 L 34.371094,87.617188 L 36.574219,82.298828 Z M 17.529297,63.009766 L 12.210938,65.212891 L 12.349609,65.546875 L 17.667969,63.345703 Z M 12.521484,34.037109 L 12.382812,34.371094 L 17.701172,36.574219 L 17.839844,36.240234 Z M 34.785156,12.210938 L 34.451172,12.349609 L 36.654297,17.667969 L 36.988281,17.529297 Z M 78.525391,21 L 71.039062,28.486328 L 71.509766,28.957031 L 78.996094,21.470703 Z M 71.515625,71.039062 L 71.044922,71.509766 L 78.53125,78.996094 L 79.001953,78.525391 Z M 28.492188,71.044922 L 21.005859,78.53125 L 21.476562,79.001953 L 28.962891,71.515625 Z M 21.470703,21.005859 L 21,21.476562 L 28.486328,28.962891 L 28.957031,28.492188 Z M 47.336848,0.49906088 H 48.618931 L 51.739297,6.3862776 V 0.49906088 H 52.663151 V 7.536381 H 51.381067 L 48.260703,1.6491657 V 7.536381 H 47.336848 Z M 51.777558,92.642033 V 93.482509 C 51.526381,93.353701 51.265544,93.257095 50.995046,93.19269 C 50.72455,93.128285 50.44439,93.096084 50.15457,93.096084 C 49.713401,93.096084 49.381718,93.163709 49.159524,93.298956 C 48.94055,93.434206 48.831063,93.637079 48.831063,93.907578 C 48.831063,94.113672 48.909957,94.276293 49.067748,94.39544 C 49.225538,94.511368 49.542729,94.622464 50.019321,94.728732 L 50.323631,94.796357 C 50.954793,94.931606 51.402404,95.123208 51.666461,95.371165 C 51.933738,95.615901 52.067377,95.958854 52.067377,96.400023 C 52.067377,96.902376 51.867725,97.300072 51.468418,97.593112 C 51.072333,97.886152 50.526505,98.032671 49.830939,98.032671 C 49.541119,98.032671 49.238419,98.00369 48.922838,97.945727 C 48.610478,97.890982 48.280405,97.807257 47.932622,97.69455 V 96.776788 C 48.261084,96.947459 48.584716,97.076268 48.903517,97.163214 C 49.222318,97.246939 49.5379,97.288802 49.85026,97.288802 C 50.268888,97.288802 50.59091,97.217957 50.816323,97.076268 C 51.041739,96.931359 51.154447,96.728485 51.154447,96.467648 C 51.154447,96.226131 51.07233,96.040968 50.9081,95.912161 C 50.74709,95.783353 50.391256,95.659374 49.840599,95.540226 L 49.531459,95.467771 C 48.980801,95.351844 48.583106,95.174731 48.33837,94.936436 C 48.093633,94.694919 47.971265,94.364847 47.971265,93.94622 C 47.971265,93.437426 48.151597,93.044559 48.512261,92.767621 C 48.872924,92.490682 49.384938,92.352213 50.048303,92.352213 C 50.376767,92.352213 50.685907,92.376365 50.975724,92.424669 C 51.265544,92.472972 51.532821,92.545427 51.777558,92.642033 Z M 92.404297,46.446407 H 96.898057 V 47.255665 H 93.365886 V 49.359735 H 96.750487 V 50.168993 H 93.365886 V 52.744337 H 96.983743 V 53.553594 H 92.404297 Z M 0.90132422,47.157125 H 1.6782117 L 2.87401,51.963165 L 4.0659988,47.157125 H 4.9304768 L 6.1262737,51.963165 L 7.3182625,47.157125 H 8.098958 L 6.6708568,52.842875 H 5.7035562 L 4.5039499,47.907355 L 3.2929194,52.842875 H 2.3256189 Z"
/>
</svg>
