<svg xmlns="http://www.w3.org/2000/svg" height="100" width="100" version="1.1">
<path style="opacity:0.6"
d="M 46.708984,8.9179688 C 43.347054,8.9179688 40.123876,9.6033329 37.183594,10.841797 H 56.21875 C 53.263316,9.5972256 50.039584,8.9179687 46.708984,8.9179688 Z M 32.912109,13.181641 C 31.886035,13.881429 30.917462,14.658031 30.011719,15.503906 H 63.404297 C 62.498489,14.658518 61.533375,13.878506 60.511719,13.181641 Z M 27.802734,17.845703 C 27.19996,18.581273 26.648574,19.357941 26.134766,20.164062 H 67.283203 C 66.766194,19.35352 66.20379,18.58206 65.599609,17.845703 Z M 75.230469,19.601562 C 73.704155,19.601562 72.193706,19.806244 70.722656,20.164062 H 79.751953 C 78.29975,19.809653 76.791685,19.601562 75.230469,19.601562 Z M 24.802734,22.505859 C 24.436657,23.255142 24.12222,24.031398 23.833984,24.824219 H 88.306641 C 87.38979,23.954589 86.384716,23.180544 85.306641,22.505859 Z M 14.742188,27.166016 C 13.318058,27.750328 11.999827,28.532728 10.822266,29.484375 H 91.90625 C 91.462742,28.669073 90.94494,27.903534 90.388672,27.166016 Z M 8.484375,31.826172 C 7.8972816,32.551101 7.3681744,33.326017 6.9179688,34.148438 H 93.664062 C 93.479477,33.352844 93.238676,32.579801 92.955078,31.826172 Z M 5.8945312,36.488281 C 5.6337765,37.238239 5.4299658,38.012101 5.2871094,38.808594 H 94.134766 C 94.13873,38.650704 94.15821,38.496718 94.158203,38.337891 C 94.158203,37.713864 94.124983,37.096835 94.064453,36.488281 Z M 5.0507812,41.148438 C 5.0476485,41.275903 5.03125,41.401119 5.03125,41.529297 C 5.03125,42.186634 5.0878421,42.831458 5.1699219,43.46875 H 93.417969 C 93.635462,42.714184 93.801071,41.938335 93.921875,41.148438 Z M 5.6582031,45.808594 C 5.8942336,46.610969 6.1996764,47.383782 6.5585938,48.128906 H 63.287109 L 68.136719,50.470703 H 37.789062 L 41.5,48.519531 L 41.794922,48.242188 L 37.414062,50.470703 H 7.9492188 C 8.5530325,51.309834 9.2361011,52.084596 9.9921875,52.791016 H 32.853516 L 28.251953,55.132812 H 13.208984 C 15.365876,56.312976 17.826952,57.011591 20.443359,57.066406 C 24.422561,57.066984 21.03047,57.065912 24.449219,57.066406 L 0.85351562,69.072266 L 0.87890625,69.152344 L 1.3320312,69.451172 L 1.6894531,69.455078 L 25.246094,57.066406 C 48.736276,57.069803 49.20777,57.069723 53.654297,57.070312 L 53.939453,62.871094 L 54.884766,62.701172 L 54.375,57.070312 C 57.430804,57.070715 75.09392,57.074219 75.232422,57.074219 C 77.003879,57.074219 78.711953,56.819371 80.335938,56.361328 L 99.214844,65.476562 L 99.21875,64.861328 L 80.847656,56.210938 C 81.786819,55.917393 82.696437,55.558671 83.568359,55.132812 H 78.560547 L 73.587891,52.791016 H 87.265625 C 88.123216,52.090141 88.907608,51.30826 89.628906,50.470703 H 68.660156 L 63.6875,48.128906 H 91.339844 C 91.802333,47.38603 92.222285,46.61509 92.578125,45.808594 Z M 53.460938,48.232422 L 53.261719,48.267578 L 53.416016,50.201172 L 53.699219,50.148438 Z M 33.376953,52.791016 H 72.943359 L 77.792969,55.132812 H 28.923828 Z M 56.089844,74.353516 L 54.447266,74.628906 L 55.144531,92.041016 L 57.490234,91.640625 Z M 0,100 V 100 M 100,0 V 0"/>
</svg>
