<svg xmlns="http://www.w3.org/2000/svg" height="100" width="100" version="1.1" xmlns:xlink="http://www.w3.org/1999/xlink">
  <path
     d="M 100,100 L 100,100 M 0,0 L 0,0 M 73.523794,63.242188 A 2.30023,2.30023 0 0 0 71.389028,64.941406 L 63.443715,92.800781 A 2.30023,2.30023 0 1 0 67.867544,94.0625 L 75.812856,66.203125 A 2.30023,2.30023 0 0 0 73.523794,63.242188 Z M 62.810903,63.242188 A 2.30023,2.30023 0 0 0 60.676137,64.941406 L 52.730825,92.800781 A 2.30023,2.30023 0 1 0 57.154653,94.0625 L 65.099965,66.203125 A 2.30023,2.30023 0 0 0 62.810903,63.242188 Z M 52.098012,63.242188 A 2.30023,2.30023 0 0 0 49.963247,64.941406 L 42.017934,92.800781 A 2.30023,2.30023 0 1 0 46.441762,94.0625 L 54.385122,66.203125 A 2.30023,2.30023 0 0 0 52.098012,63.242188 Z M 41.383168,63.242188 A 2.30023,2.30023 0 0 0 39.248403,64.941406 L 31.305044,92.800781 A 2.30023,2.30023 0 1 0 35.726918,94.0625 L 43.672231,66.203125 A 2.30023,2.30023 0 0 0 41.383168,63.242188 Z M 30.670278,63.242188 A 2.30023,2.30023 0 0 0 28.535512,64.941406 L 20.5902,92.800781 A 2.30023,2.30023 0 1 0 25.014028,94.0625 L 32.95934,66.203125 A 2.30023,2.30023 0 0 0 30.670278,63.242188 Z M 19.957387,63.242188 A 2.30023,2.30023 0 0 0 17.822622,64.941406 L 9.8773089,92.800781 A 2.30023,2.30023 0 1 0 14.301137,94.0625 L 22.24645,66.203125 A 2.30023,2.30023 0 0 0 19.957387,63.242188 Z M 74.854,59.506 C 74.487,59.506 74.487,59.506 19.587,59.498 C 10.993,59.318 4.041,52.288 4.041,43.825 C 4.041,35.179 11.146,28.144 19.879,28.144 C 20.771,28.144 21.657,28.218 22.533,28.366 C 25.559,18.13 35.095,10.93 46.083,10.93 C 54.951,10.93 63.079,15.676 67.414,23.201 C 69.759,22.218 72.291,21.706 74.853,21.706 C 85.382,21.706 93.947,30.185 93.947,40.605 C 93.948,51.028 85.384,59.506 74.854,59.506 Z M 19.88,32.831 C 13.731,32.831 8.728,37.763 8.728,43.825 C 8.728,49.758 13.623,54.686 19.637,54.811 C 74.488,54.819 74.488,54.819 74.855,54.819 C 82.799,54.819 89.263,48.443 89.263,40.606 C 89.263,32.769 82.799,26.393 74.855,26.393 C 72.291,26.393 69.767,27.07 67.559,28.352 C 66.985,28.685 66.295,28.759 65.665,28.556 C 65.032,28.353 64.518,27.891 64.245,27.285 C 61.061,20.196 53.933,15.616 46.084,15.616 C 36.506,15.616 28.296,22.354 26.562,31.638 C 26.436,32.306 26.029,32.886 25.443,33.229 C 24.856,33.573 24.149,33.644 23.507,33.427 C 22.334,33.032 21.113,32.831 19.88,32.831 Z"
     />
</svg>
