<svg xmlns="http://www.w3.org/2000/svg" height="100" width="100" version="1.1">
  <path
     d="M 100,100 V 100 M 0,0 V 0 M 15.463,60.41 L 7.408,63.707 C 5.645,64.429 4.801,66.444 5.523,68.207 C 6.07,69.542 7.358,70.351 8.717,70.351 C 9.153,70.351 9.595,70.268 10.023,70.093 L 18.078,66.796 C 19.842,66.074 20.686,64.059 19.964,62.296 C 19.243,60.532 17.228,59.689 15.463,60.41 Z M 33.054,18.492 C 33.608,19.814 34.889,20.609 36.238,20.609 C 36.683,20.609 37.135,20.523 37.571,20.34 C 39.328,19.604 40.156,17.582 39.419,15.824 L 36.082,7.863 C 35.346,6.106 33.324,5.278 31.566,6.015 C 29.809,6.751 28.982,8.773 29.718,10.531 Z M 18.078,33.204 L 10.023,29.906 C 8.258,29.184 6.244,30.028 5.523,31.792 C 4.801,33.555 5.645,35.57 7.408,36.292 L 15.463,39.59 C 15.891,39.765 16.334,39.848 16.769,39.848 C 18.128,39.848 19.417,39.04 19.963,37.704 C 20.686,35.941 19.842,33.925 18.078,33.204 Z M 62.429,20.34 C 62.865,20.523 63.317,20.609 63.762,20.609 C 65.111,20.609 66.391,19.814 66.946,18.492 L 70.282,10.531 C 71.018,8.773 70.191,6.752 68.434,6.015 C 66.678,5.278 64.655,6.106 63.918,7.863 L 60.581,15.824 C 59.844,17.582 60.672,19.604 62.429,20.34 Z M 92.591,63.708 L 84.535,60.411 C 82.774,59.689 80.757,60.533 80.035,62.297 C 79.313,64.06 80.158,66.075 81.921,66.797 L 89.977,70.094 C 90.404,70.269 90.847,70.352 91.283,70.352 C 92.642,70.352 93.93,69.543 94.477,68.207 C 95.199,66.444 94.354,64.43 92.591,63.708 Z M 37.57,79.659 C 35.815,78.922 33.791,79.75 33.054,81.508 L 29.718,89.47 C 28.982,91.227 29.809,93.249 31.567,93.985 C 32.003,94.168 32.454,94.255 32.899,94.255 C 34.248,94.255 35.529,93.459 36.083,92.137 L 39.42,84.175 C 40.156,82.417 39.328,80.395 37.57,79.659 Z M 49.928,22.621 C 34.676,22.621 22.266,34.904 22.266,50 C 22.266,65.096 34.675,77.378 49.928,77.378 C 65.18,77.378 77.588,65.096 77.588,50 C 77.588,34.903 65.18,22.621 49.928,22.621 Z M 49.928,70.478 C 38.481,70.478 29.167,61.292 29.167,50 C 29.167,38.708 38.481,29.521 49.928,29.521 C 61.375,29.521 70.687,38.708 70.687,50 C 70.687,61.292 61.375,70.478 49.928,70.478 Z M 66.946,81.507 C 66.209,79.75 64.188,78.922 62.429,79.659 C 60.672,80.396 59.844,82.417 60.581,84.175 L 63.918,92.136 C 64.472,93.458 65.752,94.253 67.102,94.253 C 67.547,94.253 67.998,94.167 68.435,93.984 C 70.192,93.248 71.019,91.226 70.283,89.468 Z M 83.23,39.848 C 83.665,39.848 84.108,39.765 84.536,39.59 L 92.592,36.292 C 94.355,35.57 95.199,33.555 94.477,31.792 C 93.755,30.028 91.741,29.185 89.977,29.906 L 81.921,33.204 C 80.157,33.926 79.314,35.941 80.035,37.704 C 80.582,39.04 81.87,39.848 83.23,39.848 Z"
     />
</svg>
