<svg xmlns="http://www.w3.org/2000/svg" height="100" width="100" version="1.1" xmlns:xlink="http://www.w3.org/1999/xlink">
  <path
     d="M 100,100 L 100,100 M 0,0 L 0,0 M 19.838247,63.212891 A 2.30023,2.30023 0 0 0 17.693715,64.900391 L 11.627309,85.761719 A 2.30023,2.30023 0 1 0 16.043325,87.046875 L 22.111684,66.185547 A 2.30023,2.30023 0 0 0 19.838247,63.212891 Z M 37.705434,63.212891 A 2.30023,2.30023 0 0 0 35.560903,64.900391 L 29.494497,85.761719 A 2.30023,2.30023 0 1 0 33.910512,87.046875 L 39.978872,66.185547 A 2.30023,2.30023 0 0 0 37.705434,63.212891 Z M 55.572622,63.212891 A 2.30023,2.30023 0 0 0 53.42809,64.900391 L 47.361684,85.761719 A 2.30023,2.30023 0 1 0 51.7777,87.046875 L 57.846059,66.185547 A 2.30023,2.30023 0 0 0 55.572622,63.212891 Z M 73.439809,63.212891 A 2.30023,2.30023 0 0 0 71.295278,64.900391 L 65.228872,85.761719 A 2.30023,2.30023 0 1 0 69.644887,87.046875 L 75.713247,66.185547 A 2.30023,2.30023 0 0 0 73.439809,63.212891 Z M 74.854,59.506 C 74.487,59.506 74.487,59.506 19.587,59.498 C 10.993,59.318 4.041,52.288 4.041,43.825 C 4.041,35.179 11.146,28.144 19.879,28.144 C 20.771,28.144 21.657,28.218 22.533,28.366 C 25.559,18.13 35.095,10.93 46.083,10.93 C 54.951,10.93 63.079,15.676 67.414,23.201 C 69.759,22.218 72.291,21.706 74.853,21.706 C 85.382,21.706 93.947,30.185 93.947,40.605 C 93.948,51.028 85.384,59.506 74.854,59.506 Z M 19.88,32.831 C 13.731,32.831 8.728,37.763 8.728,43.825 C 8.728,49.758 13.623,54.686 19.637,54.811 C 74.488,54.819 74.488,54.819 74.855,54.819 C 82.799,54.819 89.263,48.443 89.263,40.606 C 89.263,32.769 82.799,26.393 74.855,26.393 C 72.291,26.393 69.767,27.07 67.559,28.352 C 66.985,28.685 66.295,28.759 65.665,28.556 C 65.032,28.353 64.518,27.891 64.245,27.285 C 61.061,20.196 53.933,15.616 46.084,15.616 C 36.506,15.616 28.296,22.354 26.562,31.638 C 26.436,32.306 26.029,32.886 25.443,33.229 C 24.856,33.573 24.149,33.644 23.507,33.427 C 22.334,33.032 21.113,32.831 19.88,32.831 Z"
     />
</svg>
