<svg xmlns="http://www.w3.org/2000/svg" height="100" width="100" version="1.1" xmlns:xlink="http://www.w3.org/1999/xlink">
  <path
     d="M 100,100 L 100,100 M 0,0 L 0,0 M 48.068359,58.386719 A 2.30023,2.30023 0 0 0 45.917969,59.740234 L 35.980469,80.923828 L 45.832031,77.585938 L 37.994141,94.951172 A 2.3003321,2.3003321 0 1 0 42.1875,96.84375 L 54.376953,69.833984 L 44.730469,73.101562 L 50.082031,61.693359 A 2.30023,2.30023 0 0 0 48.068359,58.386719 Z M 19.263672,59.769531 A 2.30023,2.30023 0 0 0 17.191406,61.238281 L 7.3046875,85.808594 A 2.30023,2.30023 0 1 0 11.572266,87.525391 L 21.458984,62.957031 A 2.30023,2.30023 0 0 0 19.263672,59.769531 Z M 33.121094,59.769531 A 2.30023,2.30023 0 0 0 31.048828,61.238281 L 21.162109,85.808594 A 2.30023,2.30023 0 1 0 25.429688,87.525391 L 35.316406,62.957031 A 2.30023,2.30023 0 0 0 33.121094,59.769531 Z M 67.802734,59.769531 A 2.30023,2.30023 0 0 0 65.730469,61.238281 L 55.84375,85.808594 A 2.30023,2.30023 0 1 0 60.111328,87.525391 L 69.998047,62.957031 A 2.30023,2.30023 0 0 0 67.802734,59.769531 Z M 80.685547,59.769531 A 2.30023,2.30023 0 0 0 78.615234,61.238281 L 68.726562,85.808594 A 2.30023,2.30023 0 1 0 72.994141,87.525391 L 82.880859,62.957031 A 2.30023,2.30023 0 0 0 80.685547,59.769531 Z M 75.926,57.292 C 75.559,57.292 75.559,57.292 20.517,57.284 C 11.9,57.105 4.93,50.057 4.93,41.572 C 4.93,32.902 12.053,25.849 20.809,25.849 C 21.704,25.849 22.594,25.924 23.471,26.072 C 26.504,15.809 36.064,8.593 47.082,8.593 C 55.972,8.593 64.121,13.351 68.466,20.896 C 70.818,19.911 73.357,19.397 75.926,19.397 C 86.483,19.397 95.071,27.897 95.071,38.345 C 95.071,48.793 86.482,57.292 75.926,57.292 Z"
    />
</svg>
