<svg xmlns="http://www.w3.org/2000/svg" height="100" width="100" version="1.1" xmlns:xlink="http://www.w3.org/1999/xlink">
  <path
     d="M 100,100 L 100,100 M 0,0 L 0,0 M 85.282007,33.540082 H 84.456125 V 33.128065 C 84.456125,31.334033 83.00113,29.879038 81.207098,29.879038 C 79.41399,29.879038 77.958072,31.334033 77.958072,33.128065 V 33.541006 H 77.132189 C 75.338157,33.541006 73.883162,34.995077 73.883162,36.790033 C 73.883162,38.583141 75.338157,40.039059 77.132189,40.039059 H 77.958072 V 40.451077 C 77.958072,42.245108 79.413066,43.700103 81.207098,43.700103 C 83.00113,43.700103 84.456125,42.245108 84.456125,40.451077 V 40.038135 H 85.282007 C 87.076039,40.038135 88.531034,38.583141 88.531034,36.789109 C 88.531034,34.995077 87.076963,33.540082 85.282007,33.540082 Z M 59.028358,18.66865 H 59.855165 V 19.081591 C 59.855165,20.874699 61.31016,22.330618 63.104191,22.330618 C 64.898223,22.330618 66.353218,20.875623 66.353218,19.081591 V 18.66865 H 67.180024 C 68.974056,18.66865 70.429051,17.214579 70.429051,15.419623 C 70.429051,13.624668 68.97498,12.170597 67.180024,12.170597 H 66.353218 V 11.758579 C 66.353218,9.964548 64.898223,8.509553 63.104191,8.509553 C 61.31016,8.509553 59.855165,9.964548 59.855165,11.758579 V 12.171521 H 59.028358 C 57.234326,12.171521 55.780255,13.625592 55.780255,15.420547 C 55.780255,17.215503 57.234326,18.66865 59.028358,18.66865 Z M 82.900435,68.502453 C 80.990004,68.818395 79.068487,68.978213 77.192236,68.978213 C 58.309637,68.978213 42.947663,53.812086 42.947663,35.1706 C 42.947663,28.483167 44.925532,22.013752 48.666948,16.464448 C 49.392135,15.388214 49.40784,13.984028 48.706671,12.892089 C 48.005502,11.799227 46.716793,11.228314 45.44194,11.442637 C 25.757477,14.70275 11.468966,31.417176 11.468966,51.184781 C 11.468966,73.409712 29.745548,91.490447 52.210668,91.490447 C 65.858981,91.490447 78.536374,84.773452 86.123595,73.52334 C 86.848783,72.447105 86.864487,71.04292 86.163318,69.951905 C 85.463997,68.86089 84.178059,68.290901 82.900435,68.502453 Z M 52.210668,84.993318 C 33.328993,84.993318 17.967019,69.827191 17.967019,51.184781 C 17.967019,37.043156 26.702531,24.762999 39.536047,19.760589 C 37.503673,24.614267 36.44961,29.832848 36.44961,35.169677 C 36.44961,57.013999 54.108166,74.856392 76.045793,75.459638 C 69.720491,81.52073 61.217779,84.993318 52.210668,84.993318 Z"
     />
</svg>
