<svg xmlns="http://www.w3.org/2000/svg" height="100" width="100" version="1.1" xmlns:xlink="http://www.w3.org/1999/xlink">
  <path
     d="M 100,100 L 100,100 M 0,0 L 0,0 M 94.649,48.558 C 92.469,51.79 89.386,54.23 85.735,55.614 C 85.511,55.7 85.279,55.74 85.05,55.74 C 84.27,55.74 83.534,55.264 83.24,54.491 C 82.863,53.492 83.365,52.376 84.364,51.998 C 85.904,51.415 87.316,50.595 88.561,49.571 C 78.995,48.727 71.47,40.75 71.47,31.069 C 71.47,29.002 71.812,26.974 72.478,25.051 C 68.399,27.03 65.341,30.807 64.416,35.324 C 64.2,36.37 63.18,37.044 62.133,36.829 C 61.088,36.615 60.412,35.593 60.627,34.547 C 62.16,27.071 68.301,21.202 75.907,19.943 C 76.67,19.818 77.431,20.156 77.849,20.806 C 78.265,21.456 78.256,22.292 77.825,22.931 C 76.198,25.345 75.338,28.158 75.338,31.067 C 75.338,39.178 82.024,45.776 90.242,45.776 C 91.061,45.776 91.899,45.707 92.728,45.569 C 93.491,45.444 94.254,45.782 94.671,46.432 C 95.091,47.083 95.081,47.919 94.649,48.558 Z M 8.211,36.193 H 8.45 V 36.626 C 8.45,37.693 9.346,38.56 10.416,38.56 C 11.483,38.56 12.38,37.694 12.38,36.626 V 36.193 H 12.621 C 13.689,36.193 14.555,35.296 14.555,34.229 C 14.555,33.161 13.69,32.264 12.621,32.264 H 12.38 V 31.831 C 12.38,30.764 11.484,29.898 10.416,29.898 C 9.347,29.898 8.45,30.764 8.45,31.831 V 32.264 H 8.211 C 7.145,32.264 6.277,33.161 6.277,34.229 C 6.277,35.296 7.145,36.193 8.211,36.193 Z M 21.307,25.518 H 21.548 V 25.951 C 21.548,27.018 22.443,27.884 23.512,27.884 C 24.578,27.884 25.476,27.018 25.476,25.951 V 25.518 H 25.718 C 26.784,25.518 27.651,24.622 27.651,23.553 C 27.651,22.486 26.785,21.589 25.718,21.589 H 25.476 V 21.157 C 25.476,20.089 24.579,19.223 23.512,19.223 C 22.443,19.223 21.548,20.088 21.548,21.157 V 21.589 H 21.307 C 20.241,21.589 19.374,22.486 19.374,23.553 C 19.374,24.621 20.24,25.518 21.307,25.518 Z M 78.742,56.052 C 78.742,64.603 71.713,71.56 63.074,71.56 C 62.772,71.56 17.722,71.554 17.722,71.554 C 10.67,71.406 4.965,65.637 4.965,58.693 C 4.965,51.598 10.796,45.826 17.961,45.826 C 18.694,45.826 19.422,45.887 20.14,46.008 C 22.623,37.606 30.447,31.7 39.465,31.7 C 46.742,31.7 53.412,35.594 56.968,41.77 C 58.893,40.964 60.97,40.543 63.074,40.543 C 71.713,40.543 78.742,47.5 78.742,56.052 Z M 74.896,56.01 C 74.896,49.579 69.592,44.368 63.074,44.368 C 60.967,44.368 58.896,44.934 57.086,45.986 C 56.615,46.259 56.049,46.325 55.532,46.158 C 55.013,45.991 54.59,45.616 54.367,45.118 C 51.755,39.301 45.905,35.543 39.465,35.543 C 31.606,35.543 24.868,41.074 23.444,48.692 C 23.341,49.24 23.006,49.717 22.525,49.998 C 22.044,50.28 21.464,50.339 20.936,50.16 C 19.976,49.834 18.975,49.67 17.96,49.67 C 12.915,49.67 8.81,53.634 8.81,58.608 C 8.81,63.476 12.827,67.542 17.763,67.542 C 17.761,67.542 17.812,67.542 17.909,67.542 C 20.718,67.542 62.781,67.63 63.073,67.63 C 69.593,67.632 74.896,62.441 74.896,56.01 Z"
   />
</svg>
