<svg xmlns="http://www.w3.org/2000/svg" height="100" width="100" version="1.1" xmlns:xlink="http://www.w3.org/1999/xlink">
  <path
     d="M 100,100 L 100,100 M 0,0 L 0,0 M 20.964264,30.702 C 21.282264,31.463 22.021264,31.921 22.796264,31.921 C 23.053264,31.921 23.314264,31.871 23.565264,31.766 C 24.577264,31.342 25.053264,30.177 24.630264,29.165 L 22.708264,24.58 C 22.284264,23.568 21.120264,23.092 20.107264,23.516 C 19.094264,23.94 18.618264,25.105 19.042264,26.117 Z M 78.902264,45.187 C 76.746264,45.187 74.616264,45.618 72.644264,46.444 C 69.001264,40.115 62.166264,36.126 54.710264,36.126 C 45.470264,36.126 37.452264,42.178 34.908264,50.786 C 34.173264,50.662 33.427264,50.6 32.676264,50.6 C 25.333264,50.6 19.359264,56.515 19.359264,63.785 C 19.359264,70.901 25.204264,76.812 32.431264,76.963 C 32.431264,76.963 78.592264,76.969 78.902264,76.969 C 87.754264,76.969 94.957264,69.84 94.957264,61.078 C 94.957264,52.316 87.754264,45.187 78.902264,45.187 Z M 78.902264,72.944 C 78.603264,72.944 35.502264,72.854 32.623264,72.854 C 32.523264,72.854 32.472264,72.854 32.474264,72.854 C 27.415264,72.854 23.299264,68.687 23.299264,63.7 C 23.299264,58.603 27.507264,54.54 32.677264,54.54 C 33.715264,54.54 34.741264,54.709 35.725264,55.042 C 36.266264,55.226 36.860264,55.165 37.353264,54.876 C 37.846264,54.587 38.189264,54.099 38.294264,53.537 C 39.754264,45.73 46.657264,40.063 54.711264,40.063 C 61.310264,40.063 67.303264,43.914 69.981264,49.874 C 70.209264,50.383 70.643264,50.769 71.174264,50.94 C 71.703264,51.111 72.285264,51.044 72.767264,50.763 C 74.621264,49.685 76.744264,49.105 78.903264,49.105 C 85.583264,49.105 91.017264,54.444 91.017264,61.034 C 91.017264,67.625 85.582264,72.944 78.902264,72.944 Z M 19.639264,53.377 C 19.033264,51.941 18.725264,50.416 18.726264,48.846 C 18.726264,42.344 24.089264,37.053 30.682264,37.053 C 33.080264,37.053 35.395264,37.751 37.374264,39.073 C 38.284264,39.682 39.520264,39.435 40.130264,38.524 C 40.739264,37.611 40.492264,36.377 39.580264,35.768 C 36.945264,34.009 33.869264,33.08 30.682264,33.08 C 21.898264,33.08 14.752264,40.153 14.752264,48.847 C 14.751264,50.951 15.165264,52.996 15.978264,54.923 C 16.298264,55.682 17.034264,56.138 17.809264,56.138 C 18.068264,56.138 18.330264,56.088 18.580264,55.981 C 19.592264,55.553 20.065264,54.388 19.639264,53.377 Z M 12.340264,39.173 L 7.7012641,37.275 C 6.6852641,36.858 5.5242641,37.345 5.1092641,38.361 C 4.6942641,39.377 5.1802641,40.536 6.1952641,40.952 L 10.834264,42.851 C 11.080264,42.952 11.335264,43 11.587264,43 C 12.370264,43 13.110264,42.534 13.426264,41.766 C 13.843264,40.75 13.355264,39.589 12.340264,39.173 Z M 37.880264,31.766 C 38.132264,31.871 38.392264,31.921 38.648264,31.921 C 39.424264,31.921 40.163264,31.463 40.482264,30.702 L 42.404264,26.117 C 42.828264,25.106 42.352264,23.941 41.340264,23.517 C 40.326264,23.093 39.163264,23.569 38.739264,24.58 L 36.816264,29.165 C 36.392264,30.177 36.869264,31.341 37.880264,31.766 Z M 10.834264,54.841 L 6.1952641,56.74 C 5.1802641,57.156 4.6942641,58.316 5.1092641,59.331 C 5.4232641,60.101 6.1662641,60.566 6.9492641,60.566 C 7.2002641,60.566 7.4552641,60.518 7.7012641,60.417 L 12.340264,58.518 C 13.356264,58.102 13.843264,56.942 13.426264,55.927 C 13.011264,54.911 11.850264,54.425 10.834264,54.841 Z"
     />
</svg>
