<svg xmlns="http://www.w3.org/2000/svg" height="100" width="100" version="1.1" xmlns:xlink="http://www.w3.org/1999/xlink">
  <path
     d="M 100,100 L 100,100 M 0,0 L 0,0 M 11.035,62.931 C 10.556,62.931 10.076,62.764 9.687,62.424 C 6.733,59.83 5.039,56.103 5.039,52.196 C 5.039,44.658 11.232,38.527 18.846,38.527 C 19.625,38.527 20.399,38.592 21.16,38.72 C 23.797,29.795 32.11,23.52 41.689,23.52 C 45.907,23.52 49.987,24.734 53.489,27.031 C 54.432,27.649 54.695,28.916 54.076,29.859 C 53.459,30.803 52.191,31.065 51.25,30.447 C 48.414,28.588 45.108,27.606 41.689,27.606 C 33.339,27.606 26.181,33.481 24.669,41.574 C 24.56,42.156 24.204,42.662 23.693,42.961 C 23.181,43.26 22.564,43.323 22.005,43.132 C 20.986,42.787 19.923,42.612 18.845,42.612 C 13.485,42.612 9.124,46.911 9.124,52.196 C 9.124,54.926 10.312,57.535 12.382,59.353 C 13.231,60.097 13.315,61.388 12.57,62.235 C 12.168,62.696 11.602,62.931 11.035,62.931 Z M 94.851,59.672 C 94.851,50.588 87.383,43.196 78.205,43.196 C 75.97,43.196 73.764,43.642 71.719,44.499 C 67.94,37.938 60.855,33.802 53.125,33.802 C 43.545,33.802 35.232,40.076 32.595,49.002 C 31.832,48.873 31.059,48.809 30.281,48.809 C 22.669,48.809 16.474,54.941 16.474,62.478 C 16.474,69.855 22.536,75.984 30.027,76.141 C 30.027,76.141 77.886,76.147 78.206,76.147 C 87.383,76.147 94.851,68.756 94.851,59.672 Z M 30.07,73 C 24.825,73 20.557,68.12 20.557,62.949 C 20.557,57.664 24.918,53.035 30.28,53.035 C 31.358,53.035 32.421,53.14 33.441,53.486 C 34.002,53.676 34.618,53.578 35.129,53.278 C 35.64,52.979 35.995,52.456 36.105,51.875 C 37.619,43.781 44.776,37.899 53.126,37.899 C 59.967,37.899 66.182,41.891 68.958,48.07 C 69.193,48.597 69.645,49.003 70.195,49.179 C 70.745,49.357 71.343,49.303 71.845,49.012 C 73.769,47.895 75.968,47.328 78.205,47.328 C 85.131,47.328 90.766,52.932 90.766,59.764 C 90.766,66.596 85.131,72.533 78.205,72.533 C 77.897,72.534 33.334,73 30.239,73 C 30.126,73 30.068,73 30.07,73 Z"
/>
</svg>
