<svg xmlns="http://www.w3.org/2000/svg" height="100" width="100" version="1.1" xmlns:xlink="http://www.w3.org/1999/xlink">
  <path
  
     style="opacity:0.6;"
     d="M 100,100 L 100,100 M 0,0 L 0,0 M 31.750468,70.36494 C 31.000472,70.36494 30.281262,70.212306 29.625329,69.936025 H 33.87172 C 33.212407,70.213671 32.493476,70.36494 31.750468,70.36494 Z M 28.672472,69.413811 C 28.44357,69.257704 28.227485,69.084611 28.025427,68.895916 H 35.474646 C 35.272574,69.084502 35.057677,69.258352 34.829761,69.413811 Z M 27.532585,68.373702 C 27.398115,68.20961 27.275308,68.036069 27.160686,67.856239 H 36.340251 C 36.224914,68.037053 36.099249,68.209433 35.964465,68.373702 Z M 38.112929,67.981933 C 37.772431,67.981933 37.435545,67.936057 37.107375,67.856239 H 39.121938 C 38.797974,67.935303 38.461213,67.981933 38.112929,67.981933 Z M 26.863512,67.334025 C 26.781845,67.166867 26.711411,66.993428 26.64711,66.816562 H 41.030244 C 40.825708,67.010559 40.601242,67.183507 40.360739,67.334025 Z M 24.619157,66.294348 C 24.301455,66.163991 24.007177,65.989181 23.744481,65.776885 H 41.833219 C 41.734278,65.958766 41.618673,66.129816 41.494578,66.294348 Z M 23.22313,65.254671 C 23.092159,65.092945 22.974126,64.920246 22.873692,64.736776 H 42.225419 C 42.184241,64.914258 42.130596,65.086545 42.067329,65.254671 Z M 22.645196,64.214562 C 22.587026,64.047259 22.541437,63.874781 22.509567,63.697099 H 42.33038 C 42.331267,63.732322 42.335567,63.766629 42.335564,63.80206 C 42.335564,63.941273 42.328334,64.078801 42.314831,64.214562 Z M 22.456871,63.174885 C 22.456172,63.146449 22.452551,63.118824 22.452551,63.090225 C 22.452551,62.943586 22.46534,62.799594 22.483651,62.657422 H 42.170563 C 42.219082,62.825753 42.255916,62.998671 42.282867,63.174885 Z M 22.5925,62.135208 C 22.645154,61.956212 22.713282,61.783977 22.793351,61.617745 H 41.706661 C 41.809835,61.783469 41.903719,61.955287 41.983101,62.135208 Z M 23.103483,61.095531 C 23.238185,60.908335 23.390939,60.735228 23.559611,60.577636 H 40.797861 C 40.989177,60.733996 41.164347,60.908685 41.325258,61.095531 Z M 24.277062,60.055422 C 24.758232,59.792144 25.307104,59.63614 25.890785,59.623915 C 38.03207,59.622146 38.032198,59.622188 38.113361,59.622188 C 38.781455,59.622188 39.411227,59.780899 39.97329,60.055422 Z M 21.472859,92.388578 C 21.354354,92.221683 21.241116,92.048864 21.132816,91.870119 H 22.503851 C 22.202322,91.581757 21.921861,91.261465 21.662796,90.907267 H 25.206419 C 25.134987,91.559373 25.057959,92.15881 24.975664,92.70887 C 23.670136,92.689448 22.503522,92.581806 21.472859,92.388578 Z M 26.827631,90.907267 H 30.110544 C 29.705982,91.359232 29.257638,91.759844 28.768806,92.112725 H 30.64217 C 30.549012,92.231559 30.453549,92.347759 30.354795,92.461326 C 29.910073,92.50807 29.438687,92.533417 28.940309,92.536379 L 27.047523,92.638425 C 26.969178,92.107787 26.895771,91.531393 26.827631,90.907267 Z M 15.617075,84.205161 C 15.977527,84.915203 16.518699,85.416544 17.217219,85.669025 C 16.089119,82.125402 16.000899,79.184507 17.736995,77.303901 C 17.854512,78.195979 18.262366,78.808583 18.947719,79.150931 C 18.756465,76.127083 19.847697,73.671729 21.932724,71.656488 C 21.677609,72.929098 22.0667,73.913347 22.841261,74.724117 C 22.667783,71.34278 26.772987,69.898008 26.863512,67.334025 C 28.168711,68.55232 28.48209,70.815433 28.291495,73.608197 C 28.938992,72.649954 29.868926,71.80429 30.973325,71.029071 C 30.315952,74.272482 30.385409,76.803877 31.319293,78.48862 C 31.60963,77.443474 32.565569,76.731786 33.784852,76.153088 C 33.398065,78.314155 33.895127,80.47588 34.779634,82.636618 L 36.639501,81.382113 C 37.25013,85.53867 36.855772,88.885114 34.675613,90.792713 C 34.37145,90.44049 34.093293,90.057983 33.842129,89.643874 H 35.213164 C 34.531432,88.99111 33.955038,88.175073 33.497807,87.175024 H 34.421157 C 33.403661,85.809914 32.714358,83.73213 32.443772,80.748442 C 32.173186,83.73213 31.483883,85.809914 30.466387,87.175024 H 31.389408 C 30.932177,88.175073 30.355783,88.99111 29.67438,89.643874 H 31.045086 C 30.825523,90.005314 30.585551,90.342724 30.325828,90.657091 C 29.344213,90.049753 28.503158,89.314694 27.818134,88.438417 H 29.692156 C 28.787569,87.785653 28.022555,86.969615 27.415547,85.969566 H 28.786582 C 28.10485,85.316802 27.528455,84.500765 27.071224,83.500716 H 27.994574 C 26.977079,82.135606 26.287776,80.057822 26.01719,77.074134 C 25.746604,80.057822 25.057301,82.135606 24.039805,83.500716 H 24.962826 C 24.505595,84.500765 23.929201,85.316802 23.247798,85.969566 H 24.618504 C 24.011496,86.969615 23.246481,87.785653 22.342224,88.438417 H 24.215587 C 23.494354,89.360779 22.600301,90.126781 21.552191,90.752224 C 21.269426,90.345357 21.014311,89.895697 20.788494,89.401269 H 21.711844 C 20.694348,88.036159 20.005045,85.958374 19.734459,82.974686 C 19.463873,85.958374 18.77457,88.036159 17.757075,89.401269 H 18.680095 C 18.414447,89.982271 18.108639,90.501059 17.765633,90.961582 C 15.738542,89.538537 15.055823,87.26489 15.617075,84.205161 Z M 46.597656,10.929688 C 43.206352,10.929688 39.954255,11.619863 36.988281,12.869141 H 56.189453 C 53.208195,11.613692 49.95736,10.929688 46.597656,10.929688 Z M 32.679688,15.230469 C 31.644648,15.936344 30.667563,16.719032 29.753906,17.572266 H 63.4375 C 62.523777,16.719525 61.552068,15.933415 60.521484,15.230469 Z M 27.525391,19.933594 C 26.91735,20.675578 26.362047,21.46029 25.84375,22.273438 H 67.351562 C 66.830035,21.45584 66.261807,20.676378 65.652344,19.933594 Z M 75.367188,21.705078 C 73.827536,21.705078 72.30422,21.912519 70.820312,22.273438 H 79.929688 C 78.464798,21.915929 76.942044,21.705078 75.367188,21.705078 Z M 24.5,24.634766 C 24.130725,25.390611 23.812239,26.174861 23.521484,26.974609 H 88.558594 C 87.633728,26.097402 86.618746,25.315369 85.53125,24.634766 Z M 14.351562,29.335938 C 12.91499,29.92538 11.584333,30.715827 10.396484,31.675781 H 92.189453 C 91.742066,30.853357 91.21933,30.079913 90.658203,29.335938 Z M 8.0390625,34.037109 C 7.4468392,34.768393 6.9131238,35.549298 6.4589844,36.378906 H 93.962891 C 93.776692,35.576377 93.534121,34.797334 93.248047,34.037109 Z M 5.4257812,38.740234 C 5.162748,39.496739 4.9566047,40.276642 4.8125,41.080078 H 94.4375 C 94.441508,40.920809 94.460953,40.765681 94.460938,40.605469 C 94.460938,39.975982 94.428249,39.354112 94.367188,38.740234 Z M 4.5742188,43.441406 C 4.5710581,43.569986 4.5546875,43.6949 4.5546875,43.824219 C 4.5546875,44.487286 4.6125157,45.138381 4.6953125,45.78125 H 93.714844 C 93.934237,45.0201 94.100792,44.238202 94.222656,43.441406 Z M 5.1875,48.142578 C 5.4255926,48.951957 5.7336495,49.73076 6.0957031,50.482422 H 91.617188 C 92.083717,49.733058 92.50824,48.956136 92.867188,48.142578 Z M 7.4980469,52.84375 C 8.1071367,53.690204 8.7978541,54.472955 9.5605469,55.185547 H 87.507812 C 88.372896,54.478525 89.164977,53.688624 89.892578,52.84375 Z M 12.804688,57.546875 C 14.980427,58.737356 17.462294,59.442768 20.101562,59.498047 C 75.001562,59.506047 75.002141,59.505859 75.369141,59.505859 C 78.390106,59.505859 81.237784,58.788202 83.779297,57.546875 Z" />
</svg>
