<svg xmlns="http://www.w3.org/2000/svg" height="100" width="100" version="1.1">
<path  style="opacity:0.6"
     d="M 29.470392,71.059064 V 81.36869 l -4.183615,1.94239 V 79.426295 L 16.919546,83.31108 V 79.426295 L 8.5523152,83.693956 V 96.160758 H 29.470392 33.654007 V 79.426295 71.059064 Z M 11.839441,86.897039 h 4.183616 v 2.988293 h -4.183616 z m 7.171913,0 h 4.183615 v 2.988293 h -4.183615 z m 7.171912,0 h 4.183616 v 2.988293 H 26.183266 Z M 100,100 v 0 M 0,0 v 0 m 31.750468,70.36494 c -0.749996,0 -1.469206,-0.152634 -2.125139,-0.428915 h 4.246391 c -0.659313,0.277646 -1.378244,0.428915 -2.121252,0.428915 z m -3.077996,-0.951129 c -0.228902,-0.156107 -0.444987,-0.3292 -0.647045,-0.517895 h 7.449219 c -0.202072,0.188586 -0.416969,0.362436 -0.644885,0.517895 z m -1.139887,-1.040109 c -0.13447,-0.164092 -0.257277,-0.337633 -0.371899,-0.517463 h 9.179565 c -0.115337,0.180814 -0.241002,0.353194 -0.375786,0.517463 z m 10.580344,-0.391769 c -0.340498,0 -0.677384,-0.04588 -1.005554,-0.125694 h 2.014563 c -0.323964,0.07906 -0.660725,0.125694 -1.009009,0.125694 z M 26.863512,67.334025 c -0.08167,-0.167158 -0.152101,-0.340597 -0.216402,-0.517463 h 14.383134 c -0.204536,0.193997 -0.429002,0.366945 -0.669505,0.517463 z m -2.244355,-1.039677 c -0.317702,-0.130357 -0.61198,-0.305167 -0.874676,-0.517463 h 18.088738 c -0.09894,0.181881 -0.214546,0.352931 -0.338641,0.517463 z M 23.22313,65.254671 c -0.130971,-0.161726 -0.249004,-0.334425 -0.349438,-0.517895 h 19.351727 c -0.04118,0.177482 -0.09482,0.349769 -0.15809,0.517895 z m -0.577934,-1.040109 c -0.05817,-0.167303 -0.103759,-0.339781 -0.135629,-0.517463 H 42.33038 c 8.87e-4,0.03522 0.0052,0.06953 0.0052,0.104961 0,0.139213 -0.0072,0.276741 -0.02073,0.412502 z m -0.188325,-1.039677 c -6.99e-4,-0.02844 -0.0043,-0.05606 -0.0043,-0.08466 0,-0.146639 0.01279,-0.290631 0.0311,-0.432803 h 19.686912 c 0.04852,0.168331 0.08535,0.341249 0.112304,0.517463 z M 22.5925,62.135208 c 0.05265,-0.178996 0.120782,-0.351231 0.200851,-0.517463 h 18.91331 c 0.103174,0.165724 0.197058,0.337542 0.27644,0.517463 z m 0.510983,-1.039677 c 0.134702,-0.187196 0.287456,-0.360303 0.456128,-0.517895 h 17.23825 c 0.191316,0.15636 0.366486,0.331049 0.527397,0.517895 z m 1.173579,-1.040109 c 0.48117,-0.263278 1.030042,-0.419282 1.613723,-0.431507 12.141285,-0.0018 12.141413,-0.0017 12.222576,-0.0017 0.668094,0 1.297866,0.158711 1.859929,0.433234 z M 46.597656,10.929688 c -3.391304,0 -6.643401,0.690175 -9.609375,1.939453 H 56.189453 C 53.208195,11.613692 49.95736,10.929688 46.597656,10.929688 Z m -13.917968,4.300781 c -1.03504,0.705875 -2.012125,1.488563 -2.925782,2.341797 H 63.4375 c -0.913723,-0.852741 -1.885432,-1.638851 -2.916016,-2.341797 z m -5.154297,4.703125 c -0.608041,0.741984 -1.163344,1.526696 -1.681641,2.339844 h 41.507812 c -0.521527,-0.817598 -1.089755,-1.59706 -1.699218,-2.339844 z m 47.841797,1.771484 c -1.539652,0 -3.062968,0.207441 -4.546876,0.56836 h 9.109376 c -1.46489,-0.357509 -2.987644,-0.56836 -4.5625,-0.56836 z M 24.5,24.634766 c -0.369275,0.755845 -0.687761,1.540095 -0.978516,2.339843 h 65.03711 c -0.924866,-0.877207 -1.939848,-1.65924 -3.027344,-2.339843 z m -10.148438,4.701172 c -1.436572,0.589442 -2.767229,1.379889 -3.955078,2.339843 H 92.189453 C 91.742066,30.853357 91.21933,30.079913 90.658203,29.335938 Z M 8.0390625,34.037109 C 7.4468392,34.768393 6.9131238,35.549298 6.4589844,36.378906 H 93.962891 c -0.186199,-0.802529 -0.42877,-1.581572 -0.714844,-2.341797 z M 5.4257812,38.740234 C 5.162748,39.496739 4.9566047,40.276642 4.8125,41.080078 h 89.625 c 0.004,-0.159269 0.02345,-0.314397 0.02344,-0.474609 0,-0.629487 -0.03269,-1.251357 -0.09375,-1.865235 z m -0.8515624,4.701172 c -0.00316,0.12858 -0.019531,0.253494 -0.019531,0.382813 0,0.663067 0.057828,1.314162 0.140625,1.957031 H 93.714844 c 0.219393,-0.76115 0.385948,-1.543048 0.507812,-2.339844 z M 5.1875,48.142578 c 0.2380926,0.809379 0.5461495,1.588182 0.9082031,2.339844 H 91.617188 c 0.466529,-0.749364 0.891052,-1.526286 1.25,-2.339844 z m 2.3105469,4.701172 c 0.6090898,0.846454 1.2998072,1.629205 2.0625,2.341797 H 87.507812 c 0.865084,-0.707022 1.657165,-1.496923 2.384766,-2.341797 z m 5.3066411,4.703125 c 2.175739,1.190481 4.657606,1.895893 7.296874,1.951172 54.9,0.008 54.900579,0.0078 55.267579,0.0078 3.020965,0 5.868643,-0.717657 8.410156,-1.958984 z" />
</svg>
