<svg xmlns="http://www.w3.org/2000/svg" height="100" width="100" version="1.1" xmlns:xlink="http://www.w3.org/1999/xlink">
  <path
     d="M 100,100 L 100,100 M 0,0 L 0,0 M 18.133168,65.03125 L 17.30895,66.226562 L 16.023794,70.642578 L 16.27184,72.488281 L 17.80309,73.544922 L 19.61559,73.123047 L 20.441762,71.927734 L 21.724965,67.511719 L 21.478872,65.666016 L 19.945668,64.609375 Z M 14.279653,78.28125 L 13.455434,79.476562 L 12.170278,83.894531 L 12.418325,85.738281 L 13.949575,86.796875 L 15.762075,86.375 L 16.586294,85.179688 L 17.87145,80.761719 L 17.623403,78.917969 L 16.092153,77.859375 Z M 36.000356,65.03125 L 35.176137,66.226562 L 33.890981,70.642578 L 34.139028,72.488281 L 35.670278,73.544922 L 37.482778,73.123047 L 38.30895,71.927734 L 39.592153,67.511719 L 39.346059,65.666016 L 37.812856,64.609375 Z M 32.14684,78.28125 L 31.322622,79.476562 L 30.037465,83.894531 L 30.285512,85.738281 L 31.816762,86.796875 L 33.629262,86.375 L 34.453481,85.179688 L 35.738637,80.761719 L 35.49059,78.917969 L 33.95934,77.859375 Z M 53.867544,65.03125 L 53.043325,66.226562 L 51.758168,70.642578 L 52.006215,72.488281 L 53.537465,73.544922 L 55.349965,73.123047 L 56.176137,71.927734 L 57.45934,67.511719 L 57.213247,65.666016 L 55.680044,64.609375 Z M 50.014028,78.28125 L 49.189809,79.476562 L 47.904653,83.894531 L 48.1527,85.738281 L 49.68395,86.796875 L 51.49645,86.375 L 52.320668,85.179688 L 53.605825,80.761719 L 53.357778,78.917969 L 51.826528,77.859375 Z M 71.734731,65.03125 L 70.910512,66.226562 L 69.625356,70.642578 L 69.873403,72.488281 L 71.404653,73.544922 L 73.217153,73.123047 L 74.043325,71.927734 L 75.326528,67.511719 L 75.080434,65.666016 L 73.549184,64.609375 Z M 67.881215,78.28125 L 67.056997,79.476562 L 65.77184,83.894531 L 66.019887,85.738281 L 67.551137,86.796875 L 69.363637,86.375 L 70.187856,85.179688 L 71.473012,80.761719 L 71.224965,78.917969 L 69.693715,77.859375 Z M 74.854,59.506 C 74.487,59.506 74.487,59.506 19.587,59.498 C 10.993,59.318 4.041,52.288 4.041,43.825 C 4.041,35.179 11.146,28.144 19.879,28.144 C 20.771,28.144 21.657,28.218 22.533,28.366 C 25.559,18.13 35.095,10.93 46.083,10.93 C 54.951,10.93 63.079,15.676 67.414,23.201 C 69.759,22.218 72.291,21.706 74.853,21.706 C 85.382,21.706 93.947,30.185 93.947,40.605 C 93.948,51.028 85.384,59.506 74.854,59.506 Z"
    />
</svg>
