<svg xmlns="http://www.w3.org/2000/svg" height="100" width="100" version="1.1" xmlns:xlink="http://www.w3.org/1999/xlink">
  <path
     d="M 100,100 L 100,100 M 0,0 L 0,0 M 61.485,52.705 H 7.837 C 6.295,52.705 5.044,54.029 5.044,55.572 C 5.044,57.115 6.294,58.439 7.837,58.439 H 61.484 C 68.096,58.439 73.475,63.44 73.475,69.828 C 73.475,76.321 68.268,81.213 61.622,81.213 C 60.08,81.213 58.829,82.464 58.829,84.007 C 58.829,85.549 60.08,86.8 61.622,86.8 C 71.238,86.8 79.061,79.22 79.061,69.754 C 79.062,60.286 71.177,52.705 61.485,52.705 Z M 77.509,13.2 C 75.967,13.2 74.716,14.451 74.716,15.994 C 74.716,17.536 75.967,18.787 77.509,18.787 C 84.16,18.787 89.37,23.895 89.37,30.417 C 89.37,36.896 83.967,42.166 77.327,42.166 L 7.837,42.164 C 6.295,42.164 5.044,43.415 5.044,44.958 C 5.044,46.5 6.295,47.751 7.837,47.751 L 77.327,47.753 C 87.048,47.753 94.956,39.976 94.956,30.417 C 94.956,20.924 87.13,13.2 77.509,13.2 Z M 7.837,37.48 H 48.13 C 54.572,37.48 59.812,32.287 59.812,25.902 C 59.812,19.516 54.572,14.32 48.13,14.32 C 46.587,14.32 45.337,15.571 45.337,17.113 C 45.337,18.656 46.587,19.907 48.13,19.907 C 51.491,19.907 54.226,22.596 54.226,25.902 C 54.226,29.206 51.492,31.893 48.13,31.893 H 7.837 C 6.295,31.893 5.044,33.144 5.044,34.687 C 5.044,36.23 6.295,37.48 7.837,37.48 Z"
    />
</svg>
