<svg xmlns="http://www.w3.org/2000/svg" height="100" width="100" version="1.1" xmlns:xlink="http://www.w3.org/1999/xlink">
  <path
     d="M 100,100 L 100,100 M 0,0 L 0,0 M 29.459,62.603 C 29.184,61.276 29.044,59.91 29.044,58.543 C 29.044,47.445 38.167,38.416 49.379,38.416 C 60.589,38.416 69.711,47.445 69.711,58.543 C 69.711,59.979 69.559,61.406 69.259,62.784 C 69.001,63.971 67.95,64.782 66.783,64.782 C 66.604,64.782 66.424,64.763 66.242,64.724 C 64.873,64.426 64.004,63.075 64.302,61.706 C 64.525,60.681 64.638,59.617 64.638,58.543 C 64.638,50.242 57.793,43.489 49.379,43.489 C 40.963,43.489 34.117,50.242 34.117,58.543 C 34.117,59.564 34.221,60.585 34.426,61.574 C 34.71,62.946 33.828,64.288 32.457,64.573 C 31.082,64.854 29.744,63.974 29.459,62.603 Z M 36.976,35.382 C 37.383,36.354 38.325,36.939 39.316,36.939 C 39.643,36.939 39.975,36.875 40.295,36.741 C 41.587,36.199 42.195,34.714 41.653,33.421 L 39.2,27.568 C 38.658,26.276 37.173,25.669 35.88,26.21 C 34.588,26.751 33.98,28.237 34.521,29.53 Z M 58.57,36.741 C 58.89,36.875 59.222,36.939 59.549,36.939 C 60.54,36.939 61.482,36.354 61.889,35.382 L 64.341,29.529 C 64.883,28.237 64.274,26.75 62.982,26.209 C 61.69,25.668 60.204,26.277 59.662,27.568 L 57.21,33.421 C 56.67,34.713 57.279,36.199 58.57,36.741 Z M 73.859,51.08 C 74.179,51.08 74.505,51.019 74.819,50.89 L 80.741,48.466 C 82.037,47.935 82.658,46.454 82.128,45.158 C 81.597,43.862 80.117,43.241 78.819,43.771 L 72.897,46.195 C 71.601,46.725 70.98,48.207 71.51,49.504 C 71.914,50.486 72.86,51.08 73.859,51.08 Z M 18.124,48.466 L 24.045,50.89 C 24.359,51.019 24.685,51.08 25.005,51.08 C 26.004,51.08 26.951,50.486 27.353,49.504 C 27.884,48.208 27.263,46.726 25.967,46.195 L 20.047,43.772 C 18.748,43.241 17.269,43.861 16.738,45.158 C 16.207,46.455 16.827,47.936 18.124,48.466 Z M 92.168,67.989 H 7.832 C 6.431,67.989 5.296,69.589 5.296,70.989 C 5.296,72.389 6.431,73.989 7.832,73.989 H 92.168 C 93.569,73.989 94.705,72.389 94.705,70.989 C 94.705,69.589 93.569,67.989 92.168,67.989 Z M 49.205,48.979 C 48.329,48.979 47.705,49.688 47.705,50.564 V 59.002 L 46.156,57.393 C 45.549,56.762 44.545,56.742 43.915,57.35 C 43.284,57.957 43.265,58.961 43.872,59.591 L 48.22,64.109 C 48.519,64.42 48.967,64.595 49.398,64.595 C 49.842,64.595 50.265,64.409 50.566,64.082 L 54.914,59.345 C 55.506,58.699 55.463,57.697 54.818,57.105 C 54.173,56.513 53.17,56.556 52.578,57.201 L 50.706,59.241 V 50.566 C 50.705,49.688 50.081,48.979 49.205,48.979 Z"
    />
</svg>
