<svg xmlns="http://www.w3.org/2000/svg" height="100" width="100" version="1.1" xmlns:xlink="http://www.w3.org/1999/xlink">
  <path
     d="M 100,100 L 100,100 M 0,0 L 0,0 M 29.46,62.603 C 29.185,61.276 29.045,59.91 29.045,58.543 C 29.045,47.445 38.167,38.416 49.38,38.416 C 60.591,38.416 69.712,47.445 69.712,58.543 C 69.712,59.979 69.56,61.406 69.26,62.784 C 69.001,63.971 67.951,64.782 66.784,64.782 C 66.604,64.782 66.425,64.763 66.243,64.724 C 64.874,64.426 64.005,63.075 64.303,61.706 C 64.527,60.681 64.639,59.617 64.639,58.543 C 64.639,50.242 57.794,43.489 49.38,43.489 C 40.964,43.489 34.118,50.242 34.118,58.543 C 34.118,59.564 34.222,60.585 34.427,61.574 C 34.711,62.946 33.829,64.288 32.458,64.573 C 31.081,64.854 29.743,63.974 29.46,62.603 Z M 36.976,35.382 C 37.383,36.354 38.325,36.939 39.316,36.939 C 39.643,36.939 39.976,36.875 40.296,36.741 C 41.587,36.199 42.195,34.714 41.653,33.421 L 39.2,27.567 C 38.659,26.275 37.173,25.668 35.881,26.209 C 34.589,26.75 33.981,28.236 34.523,29.529 Z M 58.57,36.741 C 58.89,36.875 59.222,36.939 59.549,36.939 C 60.54,36.939 61.483,36.354 61.889,35.382 L 64.342,29.529 C 64.883,28.237 64.274,26.75 62.983,26.209 C 61.69,25.668 60.204,26.277 59.663,27.568 L 57.211,33.421 C 56.67,34.713 57.278,36.199 58.57,36.741 Z M 73.859,51.08 C 74.178,51.08 74.505,51.019 74.819,50.89 L 80.741,48.466 C 82.038,47.935 82.659,46.454 82.128,45.158 C 81.597,43.862 80.117,43.241 78.819,43.771 L 72.897,46.195 C 71.602,46.725 70.981,48.207 71.51,49.504 C 71.913,50.486 72.86,51.08 73.859,51.08 Z M 18.124,48.466 L 24.044,50.89 C 24.358,51.019 24.685,51.08 25.005,51.08 C 26.003,51.08 26.95,50.486 27.353,49.504 C 27.884,48.208 27.263,46.726 25.966,46.195 L 20.046,43.772 C 18.747,43.241 17.268,43.861 16.737,45.158 C 16.206,46.455 16.827,47.936 18.124,48.466 Z M 92.168,67.989 H 7.831 C 6.431,67.989 5.296,69.589 5.296,70.989 C 5.296,72.389 6.431,73.989 7.831,73.989 H 92.168 C 93.569,73.989 94.704,72.389 94.704,70.989 C 94.704,69.589 93.569,67.989 92.168,67.989 Z M 49.554,64.594 C 50.429,64.594 51.054,63.885 51.054,63.009 V 54.572 L 52.603,56.18 C 53.21,56.811 54.214,56.831 54.844,56.223 C 55.476,55.616 55.494,54.612 54.887,53.982 L 50.539,49.464 C 50.24,49.153 49.792,48.978 49.36,48.978 C 48.917,48.978 48.493,49.164 48.192,49.491 L 43.844,54.228 C 43.252,54.874 43.295,55.876 43.941,56.468 C 44.587,57.06 45.589,57.017 46.18,56.372 L 48.053,54.331 V 63.007 C 48.054,63.884 48.677,64.594 49.554,64.594 Z"
     />
</svg>
